<svg width="86" height="86" viewBox="0 0 86 86" fill="none" xmlns="http://www.w3.org/2000/svg">
<circle cx="43" cy="43" r="42.75" stroke="#0EDEAC" stroke-width="0.5"/>
<circle cx="43" cy="43" r="38.75" stroke="#0EDEAC" stroke-width="0.5"/>
<path d="M43.4331 31.24L39.5451 55H36.0171L39.9051 31.24H43.4331ZM45.1611 45.82V48.916H24.3171V45.82H45.1611ZM34.7571 31.24L30.8691 55H27.3411L31.1931 31.24H34.7571ZM46.7091 37.288V40.42H25.8651V37.288H46.7091ZM54.6623 55V39.952C54.6623 39.4 54.6623 38.836 54.6623 38.26C54.6863 37.66 54.7103 37.048 54.7343 36.424C53.9183 37.168 53.0063 37.816 51.9983 38.368C50.9903 38.92 49.9583 39.304 48.9023 39.52L48.2543 35.344C48.8063 35.296 49.4183 35.14 50.0903 34.876C50.7863 34.588 51.4823 34.252 52.1783 33.868C52.8983 33.46 53.5463 33.04 54.1223 32.608C54.7223 32.152 55.1783 31.696 55.4903 31.24H59.5223V55H54.6623Z" fill="#25313E"/>
</svg>
