<svg width="86" height="86" viewBox="0 0 86 86" fill="none" xmlns="http://www.w3.org/2000/svg">
<circle cx="43" cy="43" r="42.75" stroke="#0EDEAC" stroke-width="0.5"/>
<circle cx="43" cy="43" r="38.75" stroke="#0EDEAC" stroke-width="0.5"/>
<path d="M40.2866 31.24L36.3986 55H32.8706L36.7586 31.24H40.2866ZM42.0146 45.82V48.916H21.1706V45.82H42.0146ZM31.6106 31.24L27.7226 55H24.1946L28.0466 31.24H31.6106ZM43.5626 37.288V40.42H22.7186V37.288H43.5626ZM46.7638 55V51.652C48.9238 50.188 50.7478 48.868 52.2358 47.692C53.7478 46.492 54.9598 45.388 55.8718 44.38C56.8078 43.348 57.4798 42.376 57.8878 41.464C58.3198 40.552 58.5358 39.64 58.5358 38.728C58.5358 37.624 58.1998 36.724 57.5278 36.028C56.8558 35.308 55.9078 34.948 54.6838 34.948C53.3398 34.948 52.2838 35.404 51.5158 36.316C50.7718 37.228 50.3638 38.524 50.2918 40.204L46.0078 38.584C46.1278 36.952 46.5598 35.572 47.3038 34.444C48.0718 33.292 49.1038 32.416 50.3998 31.816C51.7198 31.192 53.2318 30.88 54.9358 30.88C56.3998 30.88 57.6598 31.084 58.7158 31.492C59.7958 31.9 60.6838 32.464 61.3798 33.184C62.0998 33.88 62.6398 34.684 62.9998 35.596C63.3598 36.508 63.5398 37.456 63.5398 38.44C63.5398 39.976 63.1558 41.428 62.3878 42.796C61.6438 44.164 60.4918 45.52 58.9318 46.864C57.3718 48.208 55.3918 49.624 52.9918 51.112V51.148C53.3518 51.124 53.7838 51.1 54.2878 51.076C54.8158 51.052 55.3558 51.04 55.9078 51.04C56.4598 51.016 56.9398 51.004 57.3478 51.004H63.8998V55H46.7638Z" fill="#25313E"/>
</svg>
