<svg width="86" height="86" viewBox="0 0 86 86" fill="none" xmlns="http://www.w3.org/2000/svg">
<circle cx="43" cy="43" r="42.75" stroke="#0EDEAC" stroke-width="0.5"/>
<circle cx="43" cy="43" r="38.75" stroke="#0EDEAC" stroke-width="0.5"/>
<path d="M40.3218 31.24L36.4338 55H32.9058L36.7938 31.24H40.3218ZM42.0498 45.82V48.916H21.2058V45.82H42.0498ZM31.6458 31.24L27.7578 55H24.2298L28.0818 31.24H31.6458ZM43.5978 37.288V40.42H22.7538V37.288H43.5978ZM55.151 55.36C52.775 55.36 50.747 54.868 49.067 53.884C47.411 52.876 46.271 51.436 45.647 49.564L50.327 47.512C50.495 48.376 50.771 49.096 51.155 49.672C51.539 50.224 52.055 50.644 52.703 50.932C53.375 51.22 54.167 51.364 55.079 51.364C55.895 51.364 56.579 51.22 57.131 50.932C57.707 50.644 58.151 50.236 58.463 49.708C58.775 49.18 58.931 48.58 58.931 47.908C58.931 47.188 58.787 46.6 58.499 46.144C58.235 45.688 57.827 45.364 57.275 45.172C56.723 44.956 56.027 44.848 55.187 44.848C54.875 44.848 54.575 44.86 54.287 44.884C54.023 44.884 53.723 44.908 53.387 44.956V41.32C53.579 41.344 53.771 41.368 53.963 41.392C54.179 41.392 54.395 41.392 54.611 41.392C55.955 41.392 56.915 41.128 57.491 40.6C58.091 40.048 58.391 39.172 58.391 37.972C58.391 36.988 58.091 36.232 57.491 35.704C56.915 35.152 56.087 34.876 55.007 34.876C53.855 34.876 52.943 35.164 52.271 35.74C51.599 36.292 51.131 37.144 50.867 38.296L46.439 36.64C46.727 35.44 47.279 34.408 48.095 33.544C48.935 32.68 49.967 32.02 51.191 31.564C52.415 31.084 53.771 30.844 55.259 30.844C57.035 30.844 58.511 31.12 59.687 31.672C60.887 32.224 61.787 32.98 62.387 33.94C63.011 34.9 63.323 36.004 63.323 37.252C63.323 38.236 63.167 39.076 62.855 39.772C62.567 40.444 62.183 41.02 61.703 41.5C61.247 41.956 60.767 42.304 60.263 42.544C59.759 42.784 59.291 42.928 58.859 42.976V43.084C59.411 43.108 59.975 43.228 60.551 43.444C61.127 43.636 61.655 43.936 62.135 44.344C62.639 44.752 63.047 45.28 63.359 45.928C63.671 46.552 63.827 47.296 63.827 48.16C63.827 49.6 63.443 50.872 62.675 51.976C61.931 53.056 60.911 53.896 59.615 54.496C58.319 55.072 56.831 55.36 55.151 55.36Z" fill="#25313E"/>
</svg>
