<svg width="24" height="24" viewBox="0 0 24 24" fill="none" xmlns="http://www.w3.org/2000/svg">
<rect width="24" height="24" rx="4" fill="#450DBD" fill-opacity="0.1"/>
<path d="M13 6.16799C13 6.46399 12.8713 6.72999 12.6667 6.91333V8.16799H16C16.5304 8.16799 17.0391 8.37871 17.4142 8.75378C17.7893 9.12885 18 9.63756 18 10.168V16.8347C18 17.3651 17.7893 17.8738 17.4142 18.2489C17.0391 18.6239 16.5304 18.8347 16 18.8347H8C7.46957 18.8347 6.96086 18.6239 6.58579 18.2489C6.21071 17.8738 6 17.3651 6 16.8347V10.168C6 9.63756 6.21071 9.12885 6.58579 8.75378C6.96086 8.37871 7.46957 8.16799 8 8.16799H11.3333V6.91333C11.209 6.80212 11.1145 6.66158 11.0583 6.5045C11.0022 6.34742 10.9862 6.1788 11.0119 6.01398C11.0376 5.84916 11.1041 5.69339 11.2054 5.56084C11.3067 5.4283 11.4395 5.32319 11.5918 5.25509C11.744 5.187 11.9109 5.15807 12.0772 5.17096C12.2435 5.18384 12.404 5.23812 12.544 5.32886C12.6839 5.41959 12.799 5.5439 12.8786 5.69046C12.9583 5.83703 13 6.00118 13 6.16799ZM8 9.50133C7.82319 9.50133 7.65362 9.57156 7.5286 9.69659C7.40357 9.82161 7.33333 9.99118 7.33333 10.168V16.8347C7.33333 17.0115 7.40357 17.181 7.5286 17.3061C7.65362 17.4311 7.82319 17.5013 8 17.5013H16C16.1768 17.5013 16.3464 17.4311 16.4714 17.3061C16.5964 17.181 16.6667 17.0115 16.6667 16.8347V10.168C16.6667 9.99118 16.5964 9.82161 16.4714 9.69659C16.3464 9.57156 16.1768 9.50133 16 9.50133H11.3333H8ZM5.33333 11.5013H4V15.5013H5.33333V11.5013ZM18.6667 11.5013H20V15.5013H18.6667V11.5013ZM10 14.5013C10.2652 14.5013 10.5196 14.396 10.7071 14.2084C10.8946 14.0209 11 13.7665 11 13.5013C11 13.2361 10.8946 12.9818 10.7071 12.7942C10.5196 12.6067 10.2652 12.5013 10 12.5013C9.73478 12.5013 9.48043 12.6067 9.29289 12.7942C9.10536 12.9818 9 13.2361 9 13.5013C9 13.7665 9.10536 14.0209 9.29289 14.2084C9.48043 14.396 9.73478 14.5013 10 14.5013ZM14 14.5013C14.2652 14.5013 14.5196 14.396 14.7071 14.2084C14.8946 14.0209 15 13.7665 15 13.5013C15 13.2361 14.8946 12.9818 14.7071 12.7942C14.5196 12.6067 14.2652 12.5013 14 12.5013C13.7348 12.5013 13.4804 12.6067 13.2929 12.7942C13.1054 12.9818 13 13.2361 13 13.5013C13 13.7665 13.1054 14.0209 13.2929 14.2084C13.4804 14.396 13.7348 14.5013 14 14.5013Z" fill="#450DBD"/>
</svg>
