<svg width="28" height="29" viewBox="0 0 28 29" fill="none" xmlns="http://www.w3.org/2000/svg">
<rect y="0.5" width="28" height="28" rx="8" fill="#14AC6C" fill-opacity="0.1"/>
<path d="M19.2263 16.8651L17.3881 16.6552C17.172 16.6299 16.9529 16.6538 16.7473 16.7252C16.5418 16.7967 16.3551 16.9138 16.2013 17.0677L14.8697 18.3993C12.8153 17.3545 11.1455 15.6847 10.1007 13.6303L11.4395 12.2914C11.7507 11.9803 11.9026 11.546 11.852 11.1046L11.6421 9.28092C11.6011 8.92789 11.4317 8.60228 11.1661 8.36607C10.9005 8.12987 10.5574 7.99958 10.202 8H8.95002C8.13226 8 7.452 8.68026 7.50266 9.49802C7.88621 15.6783 12.8289 20.6138 19.0019 20.9973C19.8197 21.048 20.4999 20.3677 20.4999 19.55V18.298C20.5072 17.5671 19.9572 16.952 19.2263 16.8651Z" fill="#14AC6C"/>
</svg>
