<svg width="16" height="16" viewBox="0 0 16 16" fill="none" xmlns="http://www.w3.org/2000/svg">
<path d="M11.634 15.1654C10.8807 15.1654 10.0873 14.9854 9.26732 14.6387C8.46732 14.2987 7.66065 13.832 6.87398 13.2654C6.08732 12.692 5.33398 12.0454 4.62732 11.3454C3.92065 10.632 3.28065 9.8787 2.71398 9.10536C2.14065 8.30536 1.68065 7.51203 1.35398 6.73203C1.00732 5.91203 0.833984 5.11203 0.833984 4.3587C0.833984 3.8387 0.927318 3.34536 1.10732 2.88536C1.30065 2.40536 1.59398 1.97203 2.00065 1.59203C2.51398 1.09203 3.10065 0.832031 3.72732 0.832031C3.98732 0.832031 4.25398 0.892031 4.48065 0.998698C4.74065 1.1187 4.96065 1.2987 5.12065 1.5387L6.66732 3.7187C6.80732 3.91203 6.91398 4.0987 6.98732 4.28536C7.07398 4.48536 7.12065 4.68536 7.12065 4.8787C7.12065 5.13203 7.04732 5.3787 6.90732 5.61203C6.80732 5.79203 6.65398 5.98536 6.46065 6.1787L6.00732 6.65203C6.01398 6.67203 6.02065 6.68536 6.02732 6.6987C6.10732 6.8387 6.26732 7.0787 6.57398 7.4387C6.89398 7.81203 7.20732 8.14536 7.51398 8.46536C7.91398 8.8587 8.23398 9.1587 8.54065 9.41203C8.92065 9.73203 9.16732 9.89203 9.31398 9.96536L9.30065 9.9987L9.78732 9.5187C9.99398 9.31203 10.194 9.1587 10.3873 9.0587C10.754 8.83203 11.2207 8.79203 11.6873 8.98536C11.8607 9.0587 12.0473 9.1587 12.2473 9.2987L14.4607 10.872C14.7007 11.0387 14.8873 11.252 14.994 11.5054C15.094 11.7587 15.1407 11.992 15.1407 12.2254C15.1407 12.5454 15.0673 12.8654 14.9273 13.1654C14.7873 13.4654 14.614 13.7254 14.394 13.9654C14.014 14.3854 13.6007 14.6854 13.1207 14.8787C12.6607 15.0654 12.1607 15.1654 11.634 15.1654ZM3.72732 1.83203C3.36065 1.83203 3.02065 1.99203 2.69398 2.31203C2.39398 2.5987 2.17398 2.91203 2.04065 3.25203C1.90065 3.5987 1.83398 3.96536 1.83398 4.3587C1.83398 4.9787 1.98065 5.65203 2.27398 6.34536C2.57398 7.05203 2.99398 7.78536 3.52732 8.5187C4.06065 9.25203 4.66732 9.96536 5.33398 10.6387C6.00065 11.2987 6.72065 11.912 7.46065 12.452C8.18065 12.9787 8.92065 13.4054 9.65398 13.712C10.794 14.1987 11.8607 14.312 12.7407 13.9454C13.0807 13.8054 13.3807 13.592 13.654 13.2854C13.8073 13.1187 13.9273 12.9387 14.0273 12.7254C14.1073 12.5587 14.1473 12.3854 14.1473 12.212C14.1473 12.1054 14.1273 11.9987 14.074 11.8787C14.0607 11.8454 14.014 11.7654 13.8873 11.6787L11.674 10.1054C11.5407 10.012 11.4207 9.94536 11.3073 9.8987C11.134 9.83203 11.0207 9.82536 10.874 9.9187C10.7407 9.98536 10.6207 10.0854 10.4873 10.2187L9.98065 10.7187C9.72065 10.972 9.32065 11.032 9.01398 10.9187L8.83398 10.8387C8.56065 10.692 8.24065 10.4654 7.88732 10.1654C7.56065 9.89203 7.22732 9.5787 6.80065 9.1587C6.46732 8.8187 6.14732 8.46536 5.80732 8.0787C5.49398 7.71203 5.26732 7.3987 5.12732 7.1387L5.04065 6.9387C5.00065 6.79203 4.98732 6.70536 4.98732 6.61203C4.98732 6.37203 5.07398 6.1587 5.24065 5.99203L5.74065 5.47203C5.87398 5.3387 5.97398 5.21203 6.04065 5.0987C6.09398 5.01203 6.11398 4.9387 6.11398 4.87203C6.11398 4.8187 6.09398 4.7387 6.06065 4.6587C6.02065 4.54536 5.94732 4.43203 5.85398 4.2987L4.30732 2.11203C4.24065 2.0187 4.16065 1.95203 4.06065 1.90536C3.95398 1.8587 3.84065 1.83203 3.72732 1.83203ZM9.30065 10.0054L9.19398 10.4587L9.37398 9.99203C9.34732 9.98536 9.32065 9.99203 9.30065 10.0054Z" fill="#415BE6"/>
<path d="M13.6673 4.5H10.334C10.0607 4.5 9.83398 4.27333 9.83398 4C9.83398 3.72667 10.0607 3.5 10.334 3.5H13.6673C13.9407 3.5 14.1673 3.72667 14.1673 4C14.1673 4.27333 13.9407 4.5 13.6673 4.5Z" fill="#415BE6"/>
<path d="M12 6.16536C11.7267 6.16536 11.5 5.9387 11.5 5.66536V2.33203C11.5 2.0587 11.7267 1.83203 12 1.83203C12.2733 1.83203 12.5 2.0587 12.5 2.33203V5.66536C12.5 5.9387 12.2733 6.16536 12 6.16536Z" fill="#415BE6"/>
</svg>
