<svg width="393" height="197" viewBox="0 0 393 197" fill="none" xmlns="http://www.w3.org/2000/svg">
<path d="M-157.634 190.85C-23.8571 152.573 21.794 110.361 38.3384 78.3383C56.801 42.5991 47.2795 3.53783 67.2097 1.11209C79.9715 -0.44174 95.6744 14.1442 124.951 46.1182C213.73 143.076 215.74 168.824 253.565 175.507C306.552 184.875 339.216 140.801 420.664 141.751C480.484 142.451 528.891 166.99 561.517 188.803" stroke="url(#paint0_linear_811_7820)" stroke-width="0.5" stroke-miterlimit="10"/>
<path d="M-160.846 187.002C-30.8362 149.55 17.437 108.518 35.2934 78.506C55.2476 44.9665 45.8238 7.92296 65.5467 6.17098C78.2266 5.04378 93.6344 19.3802 121.914 50.2586C207.856 144.084 210.522 170.153 248.055 176.505C301.349 185.399 332.59 138.138 414.901 137.494C416.695 137.48 418.462 137.48 420.231 137.508C478.632 138.458 527.728 163.009 561.052 184.688" stroke="url(#paint1_linear_811_7820)" stroke-width="0.5" stroke-miterlimit="10"/>
<path d="M-164.048 183.154C-37.8148 146.529 13.0427 106.749 32.257 78.6762C53.6728 47.3852 44.3827 12.3129 63.8922 11.2323C76.4944 10.5329 91.609 24.6211 118.883 54.4025C201.97 145.091 205.276 171.564 242.56 177.504C296.114 186.037 325.994 135.451 409.152 133.236C410.977 133.187 412.796 133.138 414.614 133.144C473.98 133.335 525.629 158.393 560.598 180.572" stroke="url(#paint2_linear_811_7820)" stroke-width="0.5" stroke-miterlimit="10"/>
<path d="M-167.258 179.307C-44.783 143.499 8.57897 105.064 29.2151 78.8465C52.0326 49.8553 42.9439 16.7063 62.23 16.2948C74.7604 16.0267 89.564 29.8607 115.847 58.5453C196.088 146.107 200.049 172.929 237.06 178.503C290.898 186.612 319.403 132.744 403.399 128.978C405.263 128.894 407.125 128.814 408.982 128.779C469.309 127.653 523.514 153.776 560.128 176.454" stroke="url(#paint3_linear_811_7820)" stroke-width="0.5" stroke-miterlimit="10"/>
<path d="M-170.466 175.459C-51.7579 140.478 4.02677 103.47 26.1723 79.0166C50.3 52.3755 41.5143 21.1043 60.5712 21.3572C73.0318 21.5216 87.5283 35.1015 112.814 62.6892C190.208 147.119 194.824 174.291 231.56 179.501C285.7 187.181 312.821 130.018 397.646 124.715C399.55 124.599 401.457 124.482 403.369 124.41C464.653 122.263 521.415 149.157 559.68 172.338" stroke="url(#paint4_linear_811_7820)" stroke-width="0.5" stroke-miterlimit="10"/>
<path d="M-173.674 171.611C-58.7309 137.457 -0.641131 101.972 23.1355 79.188C48.4356 54.9422 40.0847 25.5058 58.9162 26.4185C71.311 27.02 85.4945 40.3412 109.784 66.8332C184.334 148.131 189.608 175.648 226.065 180.5C280.502 187.745 306.244 127.273 391.897 120.461C393.844 120.305 395.79 120.148 397.752 120.048C459.991 116.889 519.321 144.543 559.225 168.226" stroke="url(#paint5_linear_811_7820)" stroke-width="0.5" stroke-miterlimit="10"/>
<path d="M-176.88 167.763C-65.7056 134.432 -5.46033 100.57 20.091 79.3582C46.3782 57.5347 38.6673 29.9132 57.2535 31.481C69.5865 32.5208 83.4549 45.5855 106.745 70.9759C178.45 149.142 184.388 177.001 220.562 181.498C275.307 188.304 299.662 124.511 386.141 116.202C388.135 116.011 390.117 115.815 392.123 115.684C455.313 111.52 517.21 139.929 558.759 164.11" stroke="url(#paint6_linear_811_7820)" stroke-width="0.5" stroke-miterlimit="10"/>
<path d="M-180.088 163.915C-72.6806 131.408 -16.3795 95.8406 17.0503 79.5284C37.2975 57.4892 37.2477 34.3264 55.5946 36.5423C67.8658 38.025 81.4192 50.8216 103.712 75.1257C172.57 150.159 179.172 178.355 215.062 182.503C270.115 188.864 293.082 121.739 380.386 111.95C382.416 111.723 384.448 111.49 386.504 111.324C450.65 106.166 515.118 135.316 558.307 160" stroke="url(#paint7_linear_811_7820)" stroke-width="0.5" stroke-miterlimit="10"/>
<path d="M-183.297 160.067C-79.6538 128.385 -21.8312 93.7645 14.0092 79.6985C34.5117 59.6165 35.8278 38.7454 53.9355 41.6047C66.1468 43.5327 79.3811 56.0589 100.677 79.2637C166.679 151.165 173.959 179.695 209.565 183.496C264.927 189.406 286.5 118.94 374.633 107.686C376.703 107.421 378.777 107.151 380.883 106.953C445.983 100.809 513.006 130.694 557.848 155.878" stroke="url(#paint8_linear_811_7820)" stroke-width="0.5" stroke-miterlimit="10"/>
<path d="M-186.505 156.22C-86.6285 125.361 -27.2845 91.6909 10.9667 79.8687C31.7245 61.7427 34.4084 43.1691 52.2768 46.6661C64.4264 49.0428 77.3456 61.2998 97.6427 83.4065C160.809 152.18 168.749 181.034 204.065 184.493C259.742 189.947 279.912 116.134 368.881 103.426C370.991 103.125 373.108 102.818 375.262 102.586C441.318 95.4618 510.903 126.076 557.39 151.761" stroke="url(#paint9_linear_811_7820)" stroke-width="0.5" stroke-miterlimit="10"/>
<path d="M-189.712 152.372C-93.6007 122.337 -32.7373 89.616 7.92475 80.0401C28.9377 63.8712 32.9856 47.5998 50.6147 51.7285C62.7024 54.5588 75.3086 66.5417 94.6087 87.5469C154.928 153.185 163.54 182.368 198.565 185.489C254.557 190.479 273.319 113.313 363.127 99.1651C365.279 98.8259 367.438 98.4855 369.638 98.2186C436.655 90.1207 508.798 121.457 556.93 147.643" stroke="url(#paint10_linear_811_7820)" stroke-width="0.5" stroke-miterlimit="10"/>
<path d="M-192.92 148.523C-100.579 119.315 -38.1846 87.5411 4.88623 80.215C26.1544 66.0032 31.5622 52.0375 48.954 56.7957C60.976 60.0828 73.2711 71.7861 91.5722 91.6991C149.046 154.205 158.33 183.707 193.068 186.495C249.379 191.017 266.721 110.494 357.375 94.9151C359.568 94.5386 361.762 94.1621 364.017 93.866C431.995 84.7995 506.695 116.852 556.472 143.538" stroke="url(#paint11_linear_811_7820)" stroke-width="0.5" stroke-miterlimit="10"/>
<path d="M-196.129 144.675C-107.552 116.291 -43.6441 85.4663 1.84349 80.3805C23.3669 68.1259 30.1286 56.4716 47.2971 61.8523C59.2493 65.5988 71.2353 77.0222 88.5394 95.8383C143.176 155.212 153.126 185.03 187.566 187.49C244.196 191.533 260.111 107.648 351.622 90.6523C353.854 90.2373 356.099 89.827 358.402 89.4925C427.345 79.4678 504.597 112.223 556.019 139.415" stroke="url(#paint12_linear_811_7820)" stroke-width="0.5" stroke-miterlimit="10"/>
<path d="M-199.331 140.827C-114.527 113.267 -49.0972 83.3925 -1.1969 80.553C20.5798 70.2555 28.6914 60.9128 45.6386 66.9148C57.519 71.1228 69.1999 82.2618 85.507 99.9811C137.29 156.224 147.92 186.357 182.067 188.488C239.021 192.048 253.495 104.794 345.868 86.3941C348.141 85.9407 350.43 85.4954 352.775 85.127C422.686 74.1419 502.488 107.61 555.567 135.299" stroke="url(#paint13_linear_811_7820)" stroke-width="0.5" stroke-miterlimit="10"/>
<path d="M-202.543 136.979C-121.502 110.244 -54.5492 81.3177 -4.23808 80.722C17.7938 72.3817 27.2494 65.3551 43.9793 71.9796C55.7819 76.6504 67.1637 87.5038 82.4638 104.127C131.401 157.238 142.705 187.675 176.56 189.489C233.834 192.558 246.863 101.948 340.107 82.1372C342.42 81.6464 344.753 81.1673 347.144 80.764C418.029 68.8253 500.376 102.997 555.09 131.186" stroke="url(#paint14_linear_811_7820)" stroke-width="0.5" stroke-miterlimit="10"/>
<path d="M-205.751 133.131C-128.477 107.22 -60.0027 79.2428 -7.28083 80.8922C15.0083 74.5091 25.7999 69.7998 42.3204 77.0385C54.0412 82.1744 65.126 92.7423 79.439 108.269C125.529 158.247 137.507 188.987 171.07 190.485C228.665 193.056 240.239 99.0789 334.362 77.8825C336.715 77.3533 339.092 76.8404 341.541 76.4033C413.391 63.5087 498.281 98.3771 554.64 127.063" stroke="url(#paint15_linear_811_7820)" stroke-width="0.5" stroke-miterlimit="10"/>
<path d="M-208.959 129.283C-135.45 104.197 -65.4559 77.1726 -10.3213 81.0624C12.2111 76.6329 24.3447 74.2468 40.6618 82.101C52.2949 87.702 63.0905 97.982 76.4046 112.408C119.649 159.254 132.301 190.294 165.571 191.478C223.487 193.542 233.597 96.2043 328.61 73.6138C331.003 73.045 333.424 72.4995 335.91 72.0274C408.75 58.198 496.183 93.7611 554.181 122.952" stroke="url(#paint16_linear_811_7820)" stroke-width="0.5" stroke-miterlimit="10"/>
<path d="M-212.168 125.431C-142.425 101.169 -70.9097 75.0896 -13.3643 81.2291C9.43326 78.7591 22.8829 78.688 38.9986 87.1577C50.5439 93.2191 61.0524 103.217 73.3675 116.551C113.766 160.263 127.092 191.601 160.069 192.477C218.309 194.03 226.947 93.3334 322.857 69.3627C325.288 68.7542 327.754 68.1761 330.287 67.669C404.113 52.8919 494.073 89.1463 553.722 118.842" stroke="url(#paint17_linear_811_7820)" stroke-width="0.5" stroke-miterlimit="10"/>
<path d="M-215.375 121.584C-149.401 98.1544 -77.12 87.6553 -16.4041 81.4039C6.31576 79.0644 21.4184 83.1396 37.3407 92.2247C48.7923 98.7524 59.0177 108.462 70.3357 120.699C107.887 161.282 121.885 192.909 154.571 193.481C213.127 194.506 220.288 90.4517 317.103 65.101C319.572 64.4552 322.089 63.8432 324.665 63.3012C399.478 47.5846 491.963 84.5279 553.265 114.72" stroke="url(#paint18_linear_811_7820)" stroke-width="0.5" stroke-miterlimit="10"/>
<path d="M-218.583 117.738C-156.37 95.1238 -83.1894 74.2258 -19.4446 81.5718C3.5504 84.2225 19.9472 87.5831 35.682 97.2849C47.036 104.279 56.9801 113.7 67.3012 124.841C102.009 162.291 116.675 194.205 149.072 194.477C207.943 194.971 213.62 87.5645 311.349 60.8405C313.86 60.1551 316.42 59.514 319.044 58.9347C394.904 42.3695 489.866 79.9107 552.813 110.604" stroke="url(#paint19_linear_811_7820)" stroke-width="0.5" stroke-miterlimit="10"/>
<path d="M-221.792 113.891C-163.349 92.1012 -88.1506 70.5003 -22.4856 81.7431C0.806529 85.732 18.4715 92.0301 34.0229 102.347C45.2751 109.808 54.9441 118.942 64.2662 128.985C96.1286 163.304 111.465 195.583 143.572 195.477C202.757 195.281 206.874 84.5943 305.596 56.5835C308.142 55.8561 310.75 55.1851 313.421 54.5704C390.254 37.0261 487.762 75.2935 552.348 106.487" stroke="url(#paint20_linear_811_7820)" stroke-width="0.5" stroke-miterlimit="10"/>
<path d="M-225 110.044C-170.324 89.0798 -92.7228 66.7982 -25.5284 81.9157C75.7677 104.709 84.5314 197.012 138.075 196.476C199.112 195.865 200.36 75.7843 307.8 50.2062C385.602 31.6838 485.666 70.6775 551.889 102.373" stroke="url(#paint21_linear_811_7820)" stroke-width="0.5" stroke-miterlimit="10"/>
<defs>
<linearGradient id="paint0_linear_811_7820" x1="-157.634" y1="95.9251" x2="561.517" y2="95.9251" gradientUnits="userSpaceOnUse">
<stop stop-color="#0EDEAC"/>
<stop offset="0.7678" stop-color="#DA26D3"/>
</linearGradient>
<linearGradient id="paint1_linear_811_7820" x1="-160.846" y1="96.5558" x2="561.052" y2="96.5558" gradientUnits="userSpaceOnUse">
<stop stop-color="#0EDEAC"/>
<stop offset="0.7678" stop-color="#DA26D3"/>
</linearGradient>
<linearGradient id="paint2_linear_811_7820" x1="-164.048" y1="97.1809" x2="560.598" y2="97.1809" gradientUnits="userSpaceOnUse">
<stop stop-color="#0EDEAC"/>
<stop offset="0.7678" stop-color="#DA26D3"/>
</linearGradient>
<linearGradient id="paint3_linear_811_7820" x1="-167.258" y1="97.8123" x2="560.128" y2="97.8123" gradientUnits="userSpaceOnUse">
<stop stop-color="#0EDEAC"/>
<stop offset="0.7678" stop-color="#DA26D3"/>
</linearGradient>
<linearGradient id="paint4_linear_811_7820" x1="-170.466" y1="100.783" x2="559.68" y2="100.783" gradientUnits="userSpaceOnUse">
<stop stop-color="#0EDEAC"/>
<stop offset="0.7678" stop-color="#DA26D3"/>
</linearGradient>
<linearGradient id="paint5_linear_811_7820" x1="-173.674" y1="103.75" x2="559.225" y2="103.75" gradientUnits="userSpaceOnUse">
<stop stop-color="#0EDEAC"/>
<stop offset="0.7678" stop-color="#DA26D3"/>
</linearGradient>
<linearGradient id="paint6_linear_811_7820" x1="-176.88" y1="106.711" x2="558.759" y2="106.711" gradientUnits="userSpaceOnUse">
<stop stop-color="#0EDEAC"/>
<stop offset="0.7678" stop-color="#DA26D3"/>
</linearGradient>
<linearGradient id="paint7_linear_811_7820" x1="-180.088" y1="109.661" x2="558.307" y2="109.661" gradientUnits="userSpaceOnUse">
<stop stop-color="#0EDEAC"/>
<stop offset="0.7678" stop-color="#DA26D3"/>
</linearGradient>
<linearGradient id="paint8_linear_811_7820" x1="-183.297" y1="112.594" x2="557.848" y2="112.594" gradientUnits="userSpaceOnUse">
<stop stop-color="#0EDEAC"/>
<stop offset="0.7678" stop-color="#DA26D3"/>
</linearGradient>
<linearGradient id="paint9_linear_811_7820" x1="-186.505" y1="115.509" x2="557.39" y2="115.509" gradientUnits="userSpaceOnUse">
<stop stop-color="#0EDEAC"/>
<stop offset="0.7678" stop-color="#DA26D3"/>
</linearGradient>
<linearGradient id="paint10_linear_811_7820" x1="-189.712" y1="118.4" x2="556.93" y2="118.4" gradientUnits="userSpaceOnUse">
<stop stop-color="#0EDEAC"/>
<stop offset="0.7678" stop-color="#DA26D3"/>
</linearGradient>
<linearGradient id="paint11_linear_811_7820" x1="-192.92" y1="121.263" x2="556.472" y2="121.263" gradientUnits="userSpaceOnUse">
<stop stop-color="#0EDEAC"/>
<stop offset="0.7678" stop-color="#DA26D3"/>
</linearGradient>
<linearGradient id="paint12_linear_811_7820" x1="-196.129" y1="124.068" x2="556.019" y2="124.068" gradientUnits="userSpaceOnUse">
<stop stop-color="#0EDEAC"/>
<stop offset="0.7678" stop-color="#DA26D3"/>
</linearGradient>
<linearGradient id="paint13_linear_811_7820" x1="-199.331" y1="126.811" x2="555.567" y2="126.811" gradientUnits="userSpaceOnUse">
<stop stop-color="#0EDEAC"/>
<stop offset="0.7678" stop-color="#DA26D3"/>
</linearGradient>
<linearGradient id="paint14_linear_811_7820" x1="-202.543" y1="129.46" x2="555.09" y2="129.46" gradientUnits="userSpaceOnUse">
<stop stop-color="#0EDEAC"/>
<stop offset="0.7678" stop-color="#DA26D3"/>
</linearGradient>
<linearGradient id="paint15_linear_811_7820" x1="-205.751" y1="131.962" x2="554.64" y2="131.962" gradientUnits="userSpaceOnUse">
<stop stop-color="#0EDEAC"/>
<stop offset="0.7678" stop-color="#DA26D3"/>
</linearGradient>
<linearGradient id="paint16_linear_811_7820" x1="-208.959" y1="130.23" x2="554.181" y2="130.23" gradientUnits="userSpaceOnUse">
<stop stop-color="#0EDEAC"/>
<stop offset="0.7678" stop-color="#DA26D3"/>
</linearGradient>
<linearGradient id="paint17_linear_811_7820" x1="-212.168" y1="128.377" x2="553.722" y2="128.377" gradientUnits="userSpaceOnUse">
<stop stop-color="#0EDEAC"/>
<stop offset="0.7678" stop-color="#DA26D3"/>
</linearGradient>
<linearGradient id="paint18_linear_811_7820" x1="-215.375" y1="126.522" x2="553.265" y2="126.522" gradientUnits="userSpaceOnUse">
<stop stop-color="#0EDEAC"/>
<stop offset="0.7678" stop-color="#DA26D3"/>
</linearGradient>
<linearGradient id="paint19_linear_811_7820" x1="-218.583" y1="124.678" x2="552.813" y2="124.678" gradientUnits="userSpaceOnUse">
<stop stop-color="#0EDEAC"/>
<stop offset="0.7678" stop-color="#DA26D3"/>
</linearGradient>
<linearGradient id="paint20_linear_811_7820" x1="-221.792" y1="122.814" x2="552.348" y2="122.814" gradientUnits="userSpaceOnUse">
<stop stop-color="#0EDEAC"/>
<stop offset="0.7678" stop-color="#DA26D3"/>
</linearGradient>
<linearGradient id="paint21_linear_811_7820" x1="-225" y1="120.947" x2="551.889" y2="120.947" gradientUnits="userSpaceOnUse">
<stop stop-color="#0EDEAC"/>
<stop offset="0.7678" stop-color="#DA26D3"/>
</linearGradient>
</defs>
</svg>
