<svg width="1440" height="422" viewBox="0 0 1440 422" fill="none" xmlns="http://www.w3.org/2000/svg">
<path d="M-25.3352 408.692C261.943 326.495 359.976 235.847 395.504 167.079C435.151 90.3317 414.704 6.44983 457.503 1.24069C484.908 -2.09606 518.63 29.2264 581.498 97.8888C772.148 306.099 776.464 361.392 857.69 375.743C971.477 395.861 1041.62 301.215 1216.53 303.256C1344.99 304.757 1448.94 357.455 1519 404.297" stroke="url(#paint0_linear_791_6662)" stroke-width="0.5" stroke-miterlimit="10"/>
<path d="M-32.2339 400.429C246.955 320.002 350.619 231.889 388.965 167.44C431.815 95.4156 411.578 15.8667 453.932 12.1045C481.161 9.68387 514.249 40.4706 574.977 106.78C759.533 308.264 765.258 364.246 845.858 377.888C960.305 396.987 1027.39 295.496 1204.15 294.114C1208 294.084 1211.8 294.084 1215.6 294.144C1341.01 296.184 1446.44 348.906 1518 395.46" stroke="url(#paint1_linear_791_6662)" stroke-width="0.5" stroke-miterlimit="10"/>
<path d="M-39.1096 392.166C231.969 313.516 341.183 228.09 382.444 167.805C428.433 100.61 408.484 25.2938 450.379 22.9733C477.441 21.4714 509.899 51.7249 568.469 115.679C746.893 310.427 753.993 367.277 834.058 380.033C949.061 398.357 1013.23 289.726 1191.81 284.97C1195.72 284.864 1199.63 284.759 1203.53 284.772C1331.02 285.182 1441.93 338.993 1517.03 386.622" stroke="url(#paint2_linear_791_6662)" stroke-width="0.5" stroke-miterlimit="10"/>
<path d="M-46.0015 383.903C217.006 307.008 331.597 224.473 375.912 168.171C424.912 105.914 405.394 34.7283 446.81 33.8447C473.718 33.269 505.508 62.9768 561.95 124.575C734.263 312.61 742.767 370.208 822.246 382.179C937.862 399.591 999.073 283.913 1179.45 275.826C1183.45 275.645 1187.45 275.473 1191.44 275.397C1320.99 272.979 1437.39 329.078 1516.02 377.778" stroke="url(#paint3_linear_791_6662)" stroke-width="0.5" stroke-miterlimit="10"/>
<path d="M-52.8911 375.64C202.027 300.522 321.822 221.048 369.378 168.536C421.191 111.326 402.324 44.1729 443.248 44.716C470.006 45.069 501.136 74.2311 555.437 133.474C721.636 314.783 731.549 373.132 810.437 384.321C926.699 400.812 984.939 278.058 1167.1 266.671C1171.19 266.421 1175.28 266.171 1179.39 266.015C1310.99 261.405 1432.88 319.158 1515.06 368.939" stroke="url(#paint4_linear_791_6662)" stroke-width="0.5" stroke-miterlimit="10"/>
<path d="M-59.7808 367.377C187.053 294.034 311.798 217.832 362.857 168.904C417.187 116.838 399.254 53.6249 439.694 55.5849C466.311 56.8765 496.769 85.483 548.928 142.373C709.021 316.955 720.347 376.046 798.636 386.466C915.535 402.024 970.817 272.163 1154.75 257.535C1158.93 257.202 1163.11 256.864 1167.32 256.649C1300.98 249.865 1428.39 309.251 1514.08 360.108" stroke="url(#paint5_linear_791_6662)" stroke-width="0.5" stroke-miterlimit="10"/>
<path d="M-66.6655 359.114C172.075 287.538 301.449 214.82 356.319 169.27C412.769 122.405 396.21 63.0894 436.123 66.4562C462.608 68.689 492.389 96.7448 542.403 151.269C696.385 319.126 709.137 378.952 786.818 388.609C904.381 403.225 956.682 266.233 1142.39 248.39C1146.67 247.98 1150.93 247.559 1155.24 247.277C1290.93 238.335 1423.85 299.343 1513.08 351.269" stroke="url(#paint6_linear_791_6662)" stroke-width="0.5" stroke-miterlimit="10"/>
<path d="M-73.5552 350.851C157.097 281.045 278 204.665 349.789 169.635C393.269 122.307 393.161 72.5665 432.561 77.3251C458.912 80.5091 488.017 107.989 535.89 160.181C683.758 321.311 697.936 381.861 775.008 390.767C893.231 404.427 942.552 260.281 1130.03 239.259C1134.39 238.771 1138.75 238.27 1143.17 237.915C1280.92 226.838 1419.36 289.435 1512.11 342.443" stroke="url(#paint7_linear_791_6662)" stroke-width="0.5" stroke-miterlimit="10"/>
<path d="M-80.4448 342.588C142.123 274.551 266.293 200.207 343.259 170.001C387.287 126.876 390.113 82.056 428.998 88.1964C455.221 92.3366 483.641 119.236 529.373 169.067C671.109 323.471 686.743 384.737 763.203 392.9C882.089 405.591 928.417 254.27 1117.68 230.102C1122.12 229.534 1126.58 228.953 1131.1 228.528C1270.9 215.333 1414.83 279.51 1511.12 333.592" stroke="url(#paint8_linear_791_6662)" stroke-width="0.5" stroke-miterlimit="10"/>
<path d="M-87.3345 334.325C127.144 268.058 254.582 195.753 336.725 170.366C381.301 131.441 387.064 91.5557 425.436 99.0652C451.526 104.169 479.269 130.49 522.856 177.963C658.503 325.651 675.554 387.613 751.393 395.04C870.956 406.752 914.269 248.243 1105.33 220.953C1109.86 220.307 1114.4 219.649 1119.03 219.151C1260.88 203.851 1410.31 269.593 1510.14 324.75" stroke="url(#paint9_linear_791_6662)" stroke-width="0.5" stroke-miterlimit="10"/>
<path d="M-94.2217 326.062C112.173 261.565 242.873 191.298 330.193 170.734C375.317 136.012 384.009 101.07 421.867 109.937C447.825 116.014 474.896 141.747 516.342 186.855C645.873 327.809 664.368 390.477 739.582 397.18C859.821 407.896 900.111 242.185 1092.97 211.804C1097.59 211.076 1102.23 210.345 1106.95 209.771C1250.87 192.382 1405.79 259.675 1509.15 315.907" stroke="url(#paint10_linear_791_6662)" stroke-width="0.5" stroke-miterlimit="10"/>
<path d="M-101.111 317.796C97.1857 255.074 231.175 186.842 323.667 171.11C369.339 140.591 380.952 110.6 418.3 120.818C444.117 127.877 470.52 153.009 509.82 195.771C633.241 330 653.179 393.353 727.776 399.34C848.701 409.05 885.942 236.132 1080.62 202.677C1085.33 201.869 1090.04 201.06 1094.88 200.424C1240.86 180.955 1401.27 249.785 1508.17 307.093" stroke="url(#paint11_linear_791_6662)" stroke-width="0.5" stroke-miterlimit="10"/>
<path d="M-108.001 309.534C82.2118 248.581 219.451 182.387 317.133 171.465C363.353 145.149 377.874 120.122 414.742 131.677C440.409 139.722 466.148 164.253 503.308 204.66C620.636 332.162 642.003 396.194 715.962 401.476C837.572 410.159 871.747 230.02 1068.26 193.523C1073.05 192.632 1077.88 191.751 1082.82 191.033C1230.87 169.505 1396.77 239.845 1507.19 298.239" stroke="url(#paint12_linear_791_6662)" stroke-width="0.5" stroke-miterlimit="10"/>
<path d="M-114.877 301.27C67.2342 242.087 207.741 177.933 310.604 171.836C357.368 149.722 374.787 129.659 411.181 142.548C436.693 151.585 461.777 175.505 496.796 213.556C607.996 334.335 630.823 399.042 704.153 403.621C826.457 411.266 857.54 223.892 1055.91 184.379C1060.79 183.405 1065.7 182.449 1070.74 181.658C1220.87 158.068 1392.24 229.94 1506.22 289.4" stroke="url(#paint13_linear_791_6662)" stroke-width="0.5" stroke-miterlimit="10"/>
<path d="M-121.775 293.007C52.2553 235.594 196.033 173.478 304.074 172.199C351.386 154.288 371.691 139.199 407.618 153.425C432.963 163.455 457.405 186.762 490.261 222.46C595.351 336.513 619.626 401.874 692.326 405.769C815.319 412.36 843.298 217.779 1043.53 175.237C1048.5 174.184 1053.51 173.155 1058.65 172.289C1210.87 146.651 1387.7 220.032 1505.2 280.567" stroke="url(#paint14_linear_791_6662)" stroke-width="0.5" stroke-miterlimit="10"/>
<path d="M-128.665 284.744C37.2771 229.101 184.322 169.022 297.54 172.564C345.404 158.856 368.579 148.744 404.055 164.288C429.225 175.317 453.029 198.011 483.765 231.354C582.741 338.678 608.463 404.692 680.538 407.909C804.221 413.428 829.074 211.619 1031.2 166.101C1036.25 164.964 1041.36 163.863 1046.61 162.924C1200.91 135.234 1383.2 210.112 1504.23 271.713" stroke="url(#paint15_linear_791_6662)" stroke-width="0.5" stroke-miterlimit="10"/>
<path d="M-135.554 276.481C22.303 222.61 172.611 164.576 291.01 172.929C339.397 163.417 365.453 158.293 400.493 175.16C425.474 187.188 448.657 209.263 477.248 240.243C570.113 340.841 597.283 407.498 668.728 410.042C793.1 414.472 814.81 205.446 1018.85 156.934C1023.98 155.713 1029.18 154.541 1034.52 153.527C1190.94 123.829 1378.7 200.199 1503.25 262.884" stroke="url(#paint16_linear_791_6662)" stroke-width="0.5" stroke-miterlimit="10"/>
<path d="M-142.444 268.208C7.32455 216.107 160.9 160.103 284.475 173.287C333.432 167.983 362.314 167.83 396.922 186.019C421.715 199.035 444.281 220.505 470.727 249.139C557.481 343.009 586.098 410.304 656.914 412.187C781.98 415.521 800.53 199.281 1006.49 147.805C1011.71 146.498 1017.01 145.257 1022.45 144.168C1180.98 112.435 1374.17 190.289 1502.26 254.058" stroke="url(#paint17_linear_791_6662)" stroke-width="0.5" stroke-miterlimit="10"/>
<path d="M-149.331 259.948C-7.6557 209.634 147.564 187.087 277.948 173.663C326.737 168.639 359.17 177.39 393.362 196.9C417.953 210.918 439.912 231.769 464.217 258.048C544.856 345.196 574.916 413.113 645.107 414.342C770.854 416.542 786.23 193.093 994.136 138.653C999.437 137.266 1004.84 135.952 1010.37 134.788C1171.03 101.038 1369.64 180.371 1501.28 245.206" stroke="url(#paint18_linear_791_6662)" stroke-width="0.5" stroke-miterlimit="10"/>
<path d="M-156.221 251.687C-22.6213 203.125 134.53 158.248 271.418 174.023C320.798 179.716 356.01 186.932 389.799 207.766C414.181 222.785 435.536 243.016 457.699 266.942C532.233 347.364 563.727 415.897 633.297 416.48C759.72 417.541 771.911 186.892 981.778 129.504C987.169 128.032 992.668 126.656 998.303 125.411C1161.21 89.8386 1365.13 170.456 1500.31 236.368" stroke="url(#paint19_linear_791_6662)" stroke-width="0.5" stroke-miterlimit="10"/>
<path d="M-163.11 243.427C-37.608 196.635 123.876 150.248 264.888 174.391C314.907 182.957 352.841 196.482 386.237 218.638C410.4 234.658 431.164 254.273 451.183 275.84C519.605 349.539 552.539 418.855 621.488 418.627C748.583 418.207 757.426 180.514 969.425 120.362C974.892 118.8 980.493 117.359 986.228 116.039C1151.22 78.3639 1360.62 160.541 1499.31 227.526" stroke="url(#paint20_linear_791_6662)" stroke-width="0.5" stroke-miterlimit="10"/>
<path d="M-170 235.166C-52.5865 190.146 114.058 142.298 258.354 174.762C475.881 223.709 494.701 421.924 609.682 420.773C740.756 419.461 743.436 161.595 974.157 106.667C1141.23 66.8918 1356.11 150.628 1498.33 218.693" stroke="url(#paint21_linear_791_6662)" stroke-width="0.5" stroke-miterlimit="10"/>
<defs>
<linearGradient id="paint0_linear_791_6662" x1="-25.3352" y1="204.846" x2="1519" y2="204.846" gradientUnits="userSpaceOnUse">
<stop stop-color="#0EDEAC"/>
<stop offset="0.7678" stop-color="#DA26D3"/>
</linearGradient>
<linearGradient id="paint1_linear_791_6662" x1="-32.2339" y1="206.201" x2="1518" y2="206.201" gradientUnits="userSpaceOnUse">
<stop stop-color="#0EDEAC"/>
<stop offset="0.7678" stop-color="#DA26D3"/>
</linearGradient>
<linearGradient id="paint2_linear_791_6662" x1="-39.1096" y1="207.543" x2="1517.03" y2="207.543" gradientUnits="userSpaceOnUse">
<stop stop-color="#0EDEAC"/>
<stop offset="0.7678" stop-color="#DA26D3"/>
</linearGradient>
<linearGradient id="paint3_linear_791_6662" x1="-46.0015" y1="208.899" x2="1516.02" y2="208.899" gradientUnits="userSpaceOnUse">
<stop stop-color="#0EDEAC"/>
<stop offset="0.7678" stop-color="#DA26D3"/>
</linearGradient>
<linearGradient id="paint4_linear_791_6662" x1="-52.8911" y1="215.278" x2="1515.06" y2="215.278" gradientUnits="userSpaceOnUse">
<stop stop-color="#0EDEAC"/>
<stop offset="0.7678" stop-color="#DA26D3"/>
</linearGradient>
<linearGradient id="paint5_linear_791_6662" x1="-59.7808" y1="221.649" x2="1514.08" y2="221.649" gradientUnits="userSpaceOnUse">
<stop stop-color="#0EDEAC"/>
<stop offset="0.7678" stop-color="#DA26D3"/>
</linearGradient>
<linearGradient id="paint6_linear_791_6662" x1="-66.6655" y1="228.009" x2="1513.08" y2="228.009" gradientUnits="userSpaceOnUse">
<stop stop-color="#0EDEAC"/>
<stop offset="0.7678" stop-color="#DA26D3"/>
</linearGradient>
<linearGradient id="paint7_linear_791_6662" x1="-73.5552" y1="234.343" x2="1512.11" y2="234.343" gradientUnits="userSpaceOnUse">
<stop stop-color="#0EDEAC"/>
<stop offset="0.7678" stop-color="#DA26D3"/>
</linearGradient>
<linearGradient id="paint8_linear_791_6662" x1="-80.4448" y1="240.642" x2="1511.12" y2="240.642" gradientUnits="userSpaceOnUse">
<stop stop-color="#0EDEAC"/>
<stop offset="0.7678" stop-color="#DA26D3"/>
</linearGradient>
<linearGradient id="paint9_linear_791_6662" x1="-87.3345" y1="246.902" x2="1510.14" y2="246.902" gradientUnits="userSpaceOnUse">
<stop stop-color="#0EDEAC"/>
<stop offset="0.7678" stop-color="#DA26D3"/>
</linearGradient>
<linearGradient id="paint10_linear_791_6662" x1="-94.2217" y1="253.109" x2="1509.15" y2="253.109" gradientUnits="userSpaceOnUse">
<stop stop-color="#0EDEAC"/>
<stop offset="0.7678" stop-color="#DA26D3"/>
</linearGradient>
<linearGradient id="paint11_linear_791_6662" x1="-101.111" y1="259.257" x2="1508.17" y2="259.257" gradientUnits="userSpaceOnUse">
<stop stop-color="#0EDEAC"/>
<stop offset="0.7678" stop-color="#DA26D3"/>
</linearGradient>
<linearGradient id="paint12_linear_791_6662" x1="-108.001" y1="265.281" x2="1507.19" y2="265.281" gradientUnits="userSpaceOnUse">
<stop stop-color="#0EDEAC"/>
<stop offset="0.7678" stop-color="#DA26D3"/>
</linearGradient>
<linearGradient id="paint13_linear_791_6662" x1="-114.877" y1="271.172" x2="1506.22" y2="271.172" gradientUnits="userSpaceOnUse">
<stop stop-color="#0EDEAC"/>
<stop offset="0.7678" stop-color="#DA26D3"/>
</linearGradient>
<linearGradient id="paint14_linear_791_6662" x1="-121.775" y1="276.86" x2="1505.2" y2="276.86" gradientUnits="userSpaceOnUse">
<stop stop-color="#0EDEAC"/>
<stop offset="0.7678" stop-color="#DA26D3"/>
</linearGradient>
<linearGradient id="paint15_linear_791_6662" x1="-128.665" y1="282.233" x2="1504.23" y2="282.233" gradientUnits="userSpaceOnUse">
<stop stop-color="#0EDEAC"/>
<stop offset="0.7678" stop-color="#DA26D3"/>
</linearGradient>
<linearGradient id="paint16_linear_791_6662" x1="-135.554" y1="278.513" x2="1503.25" y2="278.513" gradientUnits="userSpaceOnUse">
<stop stop-color="#0EDEAC"/>
<stop offset="0.7678" stop-color="#DA26D3"/>
</linearGradient>
<linearGradient id="paint17_linear_791_6662" x1="-142.444" y1="274.535" x2="1502.26" y2="274.535" gradientUnits="userSpaceOnUse">
<stop stop-color="#0EDEAC"/>
<stop offset="0.7678" stop-color="#DA26D3"/>
</linearGradient>
<linearGradient id="paint18_linear_791_6662" x1="-149.331" y1="270.551" x2="1501.28" y2="270.551" gradientUnits="userSpaceOnUse">
<stop stop-color="#0EDEAC"/>
<stop offset="0.7678" stop-color="#DA26D3"/>
</linearGradient>
<linearGradient id="paint19_linear_791_6662" x1="-156.221" y1="266.592" x2="1500.31" y2="266.592" gradientUnits="userSpaceOnUse">
<stop stop-color="#0EDEAC"/>
<stop offset="0.7678" stop-color="#DA26D3"/>
</linearGradient>
<linearGradient id="paint20_linear_791_6662" x1="-163.11" y1="262.588" x2="1499.31" y2="262.588" gradientUnits="userSpaceOnUse">
<stop stop-color="#0EDEAC"/>
<stop offset="0.7678" stop-color="#DA26D3"/>
</linearGradient>
<linearGradient id="paint21_linear_791_6662" x1="-170" y1="258.58" x2="1498.33" y2="258.58" gradientUnits="userSpaceOnUse">
<stop stop-color="#0EDEAC"/>
<stop offset="0.7678" stop-color="#DA26D3"/>
</linearGradient>
</defs>
</svg>
