<svg width="16" height="14" viewBox="0 0 16 14" fill="none" xmlns="http://www.w3.org/2000/svg">
<path d="M0.5 8.89844C0.632608 8.89844 0.759785 8.95112 0.853553 9.04488C0.947322 9.13865 1 9.26583 1 9.39844V11.8984C1 12.1637 1.10536 12.418 1.29289 12.6055C1.48043 12.7931 1.73478 12.8984 2 12.8984H14C14.2652 12.8984 14.5196 12.7931 14.7071 12.6055C14.8946 12.418 15 12.1637 15 11.8984V9.39844C15 9.26583 15.0527 9.13865 15.1464 9.04488C15.2402 8.95112 15.3674 8.89844 15.5 8.89844C15.6326 8.89844 15.7598 8.95112 15.8536 9.04488C15.9473 9.13865 16 9.26583 16 9.39844V11.8984C16 12.4289 15.7893 12.9376 15.4142 13.3127C15.0391 13.6877 14.5304 13.8984 14 13.8984H2C1.46957 13.8984 0.960859 13.6877 0.585786 13.3127C0.210714 12.9376 0 12.4289 0 11.8984V9.39844C0 9.26583 0.0526784 9.13865 0.146447 9.04488C0.240215 8.95112 0.367392 8.89844 0.5 8.89844Z" fill="white"/>
<path d="M7.64663 10.854C7.69308 10.9006 7.74825 10.9375 7.809 10.9627C7.86974 10.9879 7.93486 11.0009 8.00063 11.0009C8.0664 11.0009 8.13152 10.9879 8.19227 10.9627C8.25301 10.9375 8.30819 10.9006 8.35463 10.854L11.3546 7.854C11.4485 7.76011 11.5013 7.63278 11.5013 7.5C11.5013 7.36722 11.4485 7.23989 11.3546 7.146C11.2607 7.05211 11.1334 6.99937 11.0006 6.99937C10.8679 6.99937 10.7405 7.05211 10.6466 7.146L8.50063 9.293V0.5C8.50063 0.367392 8.44795 0.240215 8.35419 0.146447C8.26042 0.0526784 8.13324 0 8.00063 0C7.86802 0 7.74085 0.0526784 7.64708 0.146447C7.55331 0.240215 7.50063 0.367392 7.50063 0.5V9.293L5.35463 7.146C5.26075 7.05211 5.13341 6.99937 5.00063 6.99937C4.86786 6.99937 4.74052 7.05211 4.64663 7.146C4.55275 7.23989 4.5 7.36722 4.5 7.5C4.5 7.63278 4.55275 7.76011 4.64663 7.854L7.64663 10.854Z" fill="white"/>
</svg>
