<svg width="28" height="29" viewBox="0 0 28 29" fill="none" xmlns="http://www.w3.org/2000/svg">
<rect y="0.5" width="28" height="28" rx="8" fill="#14AC6C" fill-opacity="0.1"/>
<path d="M19.1429 10.5H8.85714C8.62981 10.5 8.4118 10.5843 8.25105 10.7343C8.09031 10.8843 8 11.0878 8 11.3V17.7C8 17.9122 8.09031 18.1157 8.25105 18.2657C8.4118 18.4157 8.62981 18.5 8.85714 18.5H19.1429C19.3702 18.5 19.5882 18.4157 19.7489 18.2657C19.9097 18.1157 20 17.9122 20 17.7V11.3C20 11.0878 19.9097 10.8843 19.7489 10.7343C19.5882 10.5843 19.3702 10.5 19.1429 10.5ZM18.2 11.3L14 14.012L9.8 11.3H18.2ZM8.85714 17.7V11.664L13.7557 14.828C13.8275 14.8745 13.9127 14.8993 14 14.8993C14.0873 14.8993 14.1725 14.8745 14.2443 14.828L19.1429 11.664V17.7H8.85714Z" fill="#14AC6C"/>
</svg>
