<svg width="24" height="24" viewBox="0 0 24 24" fill="none" xmlns="http://www.w3.org/2000/svg">
<rect width="24" height="24" rx="4" fill="#E7EDF4"/>
<path fill-rule="evenodd" clip-rule="evenodd" d="M9.99939 4.83203C9.15953 4.83203 8.35408 5.16566 7.76021 5.75953C7.16635 6.35339 6.83272 7.15885 6.83272 7.9987C6.83272 8.83855 7.16635 9.644 7.76021 10.2379C8.35408 10.8317 9.15953 11.1654 9.99939 11.1654C10.8392 11.1654 11.6447 10.8317 12.2386 10.2379C12.8324 9.644 13.1661 8.83855 13.1661 7.9987C13.1661 7.15885 12.8324 6.35339 12.2386 5.75953C11.6447 5.16566 10.8392 4.83203 9.99939 4.83203ZM7.83272 7.9987C7.83272 7.42406 8.06099 6.87296 8.46732 6.46663C8.87365 6.0603 9.42475 5.83203 9.99939 5.83203C10.574 5.83203 11.1251 6.0603 11.5315 6.46663C11.9378 6.87296 12.1661 7.42406 12.1661 7.9987C12.1661 8.57333 11.9378 9.12443 11.5315 9.53076C11.1251 9.93709 10.574 10.1654 9.99939 10.1654C9.42475 10.1654 8.87365 9.93709 8.46732 9.53076C8.06099 9.12443 7.83272 8.57333 7.83272 7.9987ZM9.99939 12.1654C8.45739 12.1654 7.03605 12.516 5.98339 13.108C4.94605 13.692 4.16605 14.576 4.16605 15.6654V15.7334C4.16539 16.508 4.16472 17.48 5.01739 18.1747C5.43672 18.516 6.02405 18.7594 6.81739 18.9194C7.61205 19.0807 8.64872 19.1654 9.99939 19.1654C11.3501 19.1654 12.3861 19.0807 13.1821 18.9194C13.9754 18.7594 14.5621 18.516 14.9821 18.1747C15.8347 17.48 15.8334 16.508 15.8327 15.7334V15.6654C15.8327 14.576 15.0527 13.692 14.0161 13.108C12.9627 12.516 11.5421 12.1654 9.99939 12.1654ZM5.16605 15.6654C5.16605 15.098 5.58072 14.482 6.47339 13.98C7.35072 13.4867 8.59605 13.1654 10.0001 13.1654C11.4027 13.1654 12.6481 13.4867 13.5254 13.98C14.4187 14.482 14.8327 15.098 14.8327 15.6654C14.8327 16.5374 14.8061 17.028 14.3501 17.3987C14.1034 17.6 13.6901 17.7967 12.9834 17.9394C12.2787 18.082 11.3154 18.1654 9.99939 18.1654C8.68339 18.1654 7.71939 18.082 7.01539 17.9394C6.30872 17.7967 5.89539 17.6 5.64872 17.3994C5.19272 17.028 5.16605 16.5374 5.16605 15.6654Z" fill="#435060"/>
<path d="M16.5925 10.2354C16.4788 10.1671 16.3426 10.1468 16.214 10.179C16.0853 10.2111 15.9747 10.293 15.9065 10.4067L16.0718 11.0894L16.0771 11.0927C16.1507 11.148 16.2164 11.2131 16.2725 11.286C16.4271 11.4904 16.508 11.7411 16.5018 11.9974C16.5018 12.3354 16.3838 12.564 16.2725 12.7094C16.2164 12.7823 16.1507 12.8474 16.0771 12.9027L16.0718 12.9054C15.9586 12.9744 15.8774 13.0856 15.8461 13.2145C15.8149 13.3434 15.8361 13.4794 15.9051 13.5927C15.9742 13.7059 16.0854 13.7871 16.2143 13.8184C16.3432 13.8496 16.4792 13.8284 16.5925 13.7594L16.5945 13.758L16.5965 13.7574L16.6011 13.754L16.6145 13.746L16.6505 13.7214C16.8071 13.6077 16.9465 13.4721 17.0645 13.3187C17.3539 12.9395 17.5078 12.4743 17.5018 11.9974C17.508 11.5205 17.3543 11.0553 17.0651 10.676C16.947 10.5226 16.8073 10.387 16.6505 10.2734C16.6386 10.2649 16.6266 10.2567 16.6145 10.2487L16.6011 10.2407L16.5965 10.2374L16.5945 10.2367L16.5931 10.236C16.5931 10.236 16.5925 10.2354 16.3351 10.664L16.5925 10.2354Z" fill="#435060"/>
<path d="M17.5731 9.07857C17.6413 8.96489 17.752 8.88297 17.8806 8.85084C18.0093 8.81871 18.1454 8.839 18.2591 8.90724L18.2611 8.90857L18.2638 8.90991L18.2704 8.91391C18.296 8.93002 18.3212 8.94692 18.3458 8.96457C18.3924 8.99724 18.4564 9.04457 18.5304 9.10591C18.6784 9.22924 18.8718 9.41391 19.0651 9.66457C19.4531 10.1692 19.8351 10.9406 19.8351 12.0026C19.8351 13.0646 19.4531 13.8359 19.0651 14.3406C18.8718 14.5912 18.6784 14.7759 18.5304 14.8992C18.4531 14.9636 18.3723 15.0237 18.2884 15.0792L18.2698 15.0912L18.2631 15.0952L18.2611 15.0966L18.2598 15.0972C18.2598 15.0972 18.2591 15.0979 18.0018 14.6692L18.2591 15.0979C18.1458 15.1622 18.012 15.1797 17.886 15.1468C17.76 15.114 17.6519 15.0332 17.5845 14.9218C17.5171 14.8104 17.4958 14.6771 17.5252 14.5503C17.5546 14.4234 17.6323 14.313 17.7418 14.2426L17.7451 14.2399L17.7724 14.2219C17.813 14.1933 17.8524 14.1631 17.8904 14.1312C17.9918 14.0459 18.1318 13.9139 18.2724 13.7312C18.5504 13.3692 18.8351 12.8072 18.8351 12.0026C18.8351 11.1979 18.5504 10.6359 18.2724 10.2739C18.16 10.1271 18.0319 9.99293 17.8904 9.87391C17.8438 9.83527 17.7953 9.799 17.7451 9.76524L17.7418 9.76257C17.6291 9.69389 17.5481 9.58345 17.5165 9.45532C17.4849 9.32719 17.5052 9.19177 17.5731 9.07857Z" fill="#435060"/>
</svg>
