<svg width="22" height="20" viewBox="0 0 22 20" fill="none" xmlns="http://www.w3.org/2000/svg">
<g id="gg:more-alt" filter="url(#filter0_d_348_4362)">
<path id="Vector" d="M7.66665 9.99967C7.66665 10.4417 7.49105 10.8656 7.17849 11.1782C6.86593 11.4907 6.44201 11.6663 5.99998 11.6663C5.55795 11.6663 5.13403 11.4907 4.82147 11.1782C4.50891 10.8656 4.33331 10.4417 4.33331 9.99967C4.33331 9.55765 4.50891 9.13372 4.82147 8.82116C5.13403 8.5086 5.55795 8.33301 5.99998 8.33301C6.44201 8.33301 6.86593 8.5086 7.17849 8.82116C7.49105 9.13372 7.66665 9.55765 7.66665 9.99967ZM12.6666 9.99967C12.6666 10.4417 12.4911 10.8656 12.1785 11.1782C11.8659 11.4907 11.442 11.6663 11 11.6663C10.558 11.6663 10.134 11.4907 9.82147 11.1782C9.50891 10.8656 9.33331 10.4417 9.33331 9.99967C9.33331 9.55765 9.50891 9.13372 9.82147 8.82116C10.134 8.5086 10.558 8.33301 11 8.33301C11.442 8.33301 11.8659 8.5086 12.1785 8.82116C12.4911 9.13372 12.6666 9.55765 12.6666 9.99967ZM16 11.6663C16.442 11.6663 16.8659 11.4907 17.1785 11.1782C17.4911 10.8656 17.6666 10.4417 17.6666 9.99967C17.6666 9.55765 17.4911 9.13372 17.1785 8.82116C16.8659 8.5086 16.442 8.33301 16 8.33301C15.558 8.33301 15.134 8.5086 14.8215 8.82116C14.5089 9.13372 14.3333 9.55765 14.3333 9.99967C14.3333 10.4417 14.5089 10.8656 14.8215 11.1782C15.134 11.4907 15.558 11.6663 16 11.6663Z" fill="#8F94A8"/>
</g>
<defs>
<filter id="filter0_d_348_4362" x="-3" y="0" width="28" height="28" filterUnits="userSpaceOnUse" color-interpolation-filters="sRGB">
<feFlood flood-opacity="0" result="BackgroundImageFix"/>
<feColorMatrix in="SourceAlpha" type="matrix" values="0 0 0 0 0 0 0 0 0 0 0 0 0 0 0 0 0 0 127 0" result="hardAlpha"/>
<feOffset dy="4"/>
<feGaussianBlur stdDeviation="2"/>
<feComposite in2="hardAlpha" operator="out"/>
<feColorMatrix type="matrix" values="0 0 0 0 0.901961 0 0 0 0 0.901961 0 0 0 0 0.909804 0 0 0 1 0"/>
<feBlend mode="normal" in2="BackgroundImageFix" result="effect1_dropShadow_348_4362"/>
<feBlend mode="normal" in="SourceGraphic" in2="effect1_dropShadow_348_4362" result="shape"/>
</filter>
</defs>
</svg>
