<svg xmlns="http://www.w3.org/2000/svg" width="20" height="20" viewBox="0 0 20 20" fill="none">
  <path d="M18.1713 8.36792H17.5V8.33334H10V11.6667H14.7096C14.0225 13.6071 12.1763 15 10 15C7.23876 15 5.00001 12.7613 5.00001 10C5.00001 7.23876 7.23876 5.00001 10 5.00001C11.2746 5.00001 12.4342 5.48084 13.3171 6.26625L15.6742 3.90917C14.1858 2.52209 12.195 1.66667 10 1.66667C5.39792 1.66667 1.66667 5.39792 1.66667 10C1.66667 14.6021 5.39792 18.3333 10 18.3333C14.6021 18.3333 18.3333 14.6021 18.3333 10C18.3333 9.44126 18.2758 8.89584 18.1713 8.36792Z" fill="#FFC107"/>
  <path d="M2.6275 6.12125L5.36542 8.12917C6.10625 6.29501 7.90042 5.00001 10 5.00001C11.2746 5.00001 12.4342 5.48084 13.3171 6.26625L15.6742 3.90917C14.1858 2.52209 12.195 1.66667 10 1.66667C6.79917 1.66667 4.02334 3.47376 2.6275 6.12125Z" fill="#FF3D00"/>
  <path d="M10 18.3333C12.1525 18.3333 14.1083 17.5096 15.5871 16.17L13.0079 13.9875C12.1431 14.6452 11.0864 15.0009 10 15C7.8325 15 5.99209 13.6179 5.29875 11.6892L2.58125 13.7829C3.96042 16.4817 6.76125 18.3333 10 18.3333Z" fill="#4CAF50"/>
  <path d="M18.1712 8.36791H17.5V8.33333H10V11.6667H14.7096C14.3809 12.5902 13.7889 13.3972 13.0067 13.9879L13.0079 13.9871L15.5871 16.1696C15.4046 16.3354 18.3333 14.1667 18.3333 9.99999C18.3333 9.44124 18.2758 8.89583 18.1712 8.36791Z" fill="#1976D2"/>
</svg>