<svg xmlns="http://www.w3.org/2000/svg" width="16" height="17" viewBox="0 0 16 17" fill="none">
  <path d="M10.92 15.6667H2.15997C1.52664 15.6667 0.939975 15.3734 0.559975 14.86C0.173308 14.34 0.0599805 13.6867 0.253314 13.0667L3.05998 4.04663C3.31331 3.20663 4.08665 2.6333 4.96665 2.6333H13.1666C13.9733 2.6333 14.7 3.11336 15.0067 3.86003C15.1733 4.24669 15.2066 4.6867 15.1066 5.12004L12.86 14.14C12.6467 15.04 11.8466 15.6667 10.92 15.6667ZM4.97331 3.63997C4.53997 3.63997 4.14664 3.92668 4.01998 4.34668L1.21332 13.3667C1.11998 13.68 1.17331 14.0067 1.37331 14.2734C1.55998 14.5267 1.85331 14.6733 2.16664 14.6733H10.9267C11.3867 14.6733 11.7866 14.36 11.8933 13.9133L14.14 4.88664C14.1933 4.66664 14.18 4.44667 14.0933 4.25334C13.9333 3.87334 13.58 3.6333 13.1733 3.6333H4.97331V3.63997Z" fill="#435060"/>
  <path d="M13.8534 15.6666H10.6667C10.3934 15.6666 10.1667 15.4399 10.1667 15.1666C10.1667 14.8932 10.3934 14.6666 10.6667 14.6666H13.8534C14.1267 14.6666 14.38 14.5533 14.5667 14.3533C14.7534 14.1532 14.8467 13.8866 14.8267 13.6133L14.1667 4.53326C14.1467 4.25993 14.3534 4.0199 14.6267 3.9999C14.9 3.98656 15.14 4.18652 15.16 4.45986L15.82 13.5399C15.86 14.0866 15.6667 14.6333 15.2934 15.0333C14.9267 15.4399 14.4 15.6666 13.8534 15.6666Z" fill="#435060"/>
  <path d="M6.4532 5.25322C6.4132 5.25322 6.3732 5.24654 6.3332 5.23988C6.06654 5.17321 5.89988 4.90652 5.96654 4.63319L6.65986 1.75322C6.72653 1.48656 6.9932 1.31986 7.26653 1.38652C7.5332 1.45319 7.69988 1.71988 7.63321 1.99321L6.93987 4.87326C6.88654 5.09993 6.67986 5.25322 6.4532 5.25322Z" fill="#435060"/>
  <path d="M10.92 5.26007C10.8866 5.26007 10.8466 5.26006 10.8133 5.24673C10.5466 5.18673 10.3733 4.92005 10.4266 4.65338L11.0533 1.76007C11.1133 1.48674 11.38 1.3201 11.6466 1.37344C11.9133 1.42677 12.0866 1.70003 12.0333 1.9667L11.4066 4.86009C11.3599 5.10009 11.1533 5.26007 10.92 5.26007Z" fill="#435060"/>
  <path d="M10.4668 9H5.13348C4.86015 9 4.63348 8.77333 4.63348 8.5C4.63348 8.22667 4.86015 8 5.13348 8H10.4668C10.7402 8 10.9668 8.22667 10.9668 8.5C10.9668 8.77333 10.7402 9 10.4668 9Z" fill="#435060"/>
  <path d="M9.80013 11.6667H4.4668C4.19346 11.6667 3.9668 11.4401 3.9668 11.1667C3.9668 10.8934 4.19346 10.6667 4.4668 10.6667H9.80013C10.0735 10.6667 10.3001 10.8934 10.3001 11.1667C10.3001 11.4401 10.0735 11.6667 9.80013 11.6667Z" fill="#435060"/>
</svg>