<svg width="16" height="16" viewBox="0 0 16 16" fill="none" xmlns="http://www.w3.org/2000/svg">
<g id="vuesax/outline/timer">
<g id="timer">
<path id="Vector" d="M7.99999 15.1667C4.50666 15.1667 1.66666 12.3267 1.66666 8.83333C1.66666 5.34 4.50666 2.5 7.99999 2.5C11.4933 2.5 14.3333 5.34 14.3333 8.83333C14.3333 12.3267 11.4933 15.1667 7.99999 15.1667ZM7.99999 3.5C5.05999 3.5 2.66666 5.89333 2.66666 8.83333C2.66666 11.7733 5.05999 14.1667 7.99999 14.1667C10.94 14.1667 13.3333 11.7733 13.3333 8.83333C13.3333 5.89333 10.94 3.5 7.99999 3.5Z" fill="#1D4CF6"/>
<path id="Vector_2" d="M8 9.16659C7.72667 9.16659 7.5 8.93992 7.5 8.66659V5.33325C7.5 5.05992 7.72667 4.83325 8 4.83325C8.27333 4.83325 8.5 5.05992 8.5 5.33325V8.66659C8.5 8.93992 8.27333 9.16659 8 9.16659Z" fill="#1D4CF6"/>
<path id="Vector_3" d="M10 1.83325H6C5.72667 1.83325 5.5 1.60659 5.5 1.33325C5.5 1.05992 5.72667 0.833252 6 0.833252H10C10.2733 0.833252 10.5 1.05992 10.5 1.33325C10.5 1.60659 10.2733 1.83325 10 1.83325Z" fill="#1D4CF6"/>
</g>
</g>
</svg>
