<svg xmlns="http://www.w3.org/2000/svg" width="16" height="17" viewBox="0 0 16 17" fill="none">
  <path d="M9.60002 14.3334H6.40002C3.47335 14.3334 2.16669 13.0267 2.16669 10.1001V6.90008C2.16669 3.97342 3.47335 2.66675 6.40002 2.66675H9.60002C12.5267 2.66675 13.8334 3.97342 13.8334 6.90008V10.1001C13.8334 13.0267 12.5267 14.3334 9.60002 14.3334ZM6.40002 3.66675C4.01335 3.66675 3.16669 4.51342 3.16669 6.90008V10.1001C3.16669 12.4867 4.01335 13.3334 6.40002 13.3334H9.60002C11.9867 13.3334 12.8334 12.4867 12.8334 10.1001V6.90008C12.8334 4.51342 11.9867 3.66675 9.60002 3.66675H6.40002Z" fill="#435060"/>
  <path d="M9.00002 12.3334H7.00002C5.06669 12.3334 4.16669 11.4334 4.16669 9.50008V7.50008C4.16669 5.56675 5.06669 4.66675 7.00002 4.66675H9.00002C10.9334 4.66675 11.8334 5.56675 11.8334 7.50008V9.50008C11.8334 11.4334 10.9334 12.3334 9.00002 12.3334ZM7.00002 5.66675C5.61335 5.66675 5.16669 6.11341 5.16669 7.50008V9.50008C5.16669 10.8867 5.61335 11.3334 7.00002 11.3334H9.00002C10.3867 11.3334 10.8334 10.8867 10.8334 9.50008V7.50008C10.8334 6.11341 10.3867 5.66675 9.00002 5.66675H7.00002Z" fill="#435060"/>
  <path d="M5.34003 3.66659C5.06003 3.66659 4.84003 3.43992 4.84003 3.16659V1.83325C4.84003 1.55992 5.06669 1.33325 5.34003 1.33325C5.61336 1.33325 5.84003 1.55992 5.84003 1.83325V3.16659C5.84003 3.43992 5.61336 3.66659 5.34003 3.66659Z" fill="#435060"/>
  <path d="M8 3.66659C7.72667 3.66659 7.5 3.43992 7.5 3.16659V1.83325C7.5 1.55992 7.72667 1.33325 8 1.33325C8.27333 1.33325 8.5 1.55992 8.5 1.83325V3.16659C8.5 3.43992 8.27333 3.66659 8 3.66659Z" fill="#435060"/>
  <path d="M10.6667 3.66659C10.3934 3.66659 10.1667 3.43992 10.1667 3.16659V1.83325C10.1667 1.55992 10.3934 1.33325 10.6667 1.33325C10.94 1.33325 11.1667 1.55992 11.1667 1.83325V3.16659C11.1667 3.43992 10.94 3.66659 10.6667 3.66659Z" fill="#435060"/>
  <path d="M14.6666 6.33325H13.3333C13.06 6.33325 12.8333 6.10659 12.8333 5.83325C12.8333 5.55992 13.06 5.33325 13.3333 5.33325H14.6666C14.94 5.33325 15.1666 5.55992 15.1666 5.83325C15.1666 6.10659 14.9466 6.33325 14.6666 6.33325Z" fill="#435060"/>
  <path d="M14.6666 9H13.3333C13.06 9 12.8333 8.77333 12.8333 8.5C12.8333 8.22667 13.06 8 13.3333 8H14.6666C14.94 8 15.1666 8.22667 15.1666 8.5C15.1666 8.77333 14.9466 9 14.6666 9Z" fill="#435060"/>
  <path d="M14.6666 11.6667H13.3333C13.06 11.6667 12.8333 11.4401 12.8333 11.1667C12.8333 10.8934 13.06 10.6667 13.3333 10.6667H14.6666C14.94 10.6667 15.1666 10.8934 15.1666 11.1667C15.1666 11.4401 14.9466 11.6667 14.6666 11.6667Z" fill="#435060"/>
  <path d="M10.6667 15.6666C10.3934 15.6666 10.1667 15.4399 10.1667 15.1666V13.8333C10.1667 13.5599 10.3934 13.3333 10.6667 13.3333C10.94 13.3333 11.1667 13.5599 11.1667 13.8333V15.1666C11.1667 15.4399 10.94 15.6666 10.6667 15.6666Z" fill="#435060"/>
  <path d="M8.00665 15.6666C7.73332 15.6666 7.50665 15.4399 7.50665 15.1666V13.8333C7.50665 13.5599 7.73332 13.3333 8.00665 13.3333C8.27999 13.3333 8.50665 13.5599 8.50665 13.8333V15.1666C8.50665 15.4399 8.27999 15.6666 8.00665 15.6666Z" fill="#435060"/>
  <path d="M5.34003 15.6666C5.06669 15.6666 4.84003 15.4399 4.84003 15.1666V13.8333C4.84003 13.5599 5.06669 13.3333 5.34003 13.3333C5.61336 13.3333 5.84003 13.5599 5.84003 13.8333V15.1666C5.84003 15.4399 5.61336 15.6666 5.34003 15.6666Z" fill="#435060"/>
  <path d="M2.66665 6.33325H1.33331C1.05998 6.33325 0.833313 6.11325 0.833313 5.83325C0.833313 5.55325 1.05998 5.33325 1.33331 5.33325H2.66665C2.93998 5.33325 3.16665 5.55992 3.16665 5.83325C3.16665 6.10659 2.94665 6.33325 2.66665 6.33325Z" fill="#435060"/>
  <path d="M2.66665 9H1.33331C1.05998 9 0.833313 8.77333 0.833313 8.5C0.833313 8.22667 1.05998 8 1.33331 8H2.66665C2.93998 8 3.16665 8.22667 3.16665 8.5C3.16665 8.77333 2.94665 9 2.66665 9Z" fill="#435060"/>
  <path d="M2.66665 11.6667H1.33331C1.05998 11.6667 0.833313 11.4401 0.833313 11.1667C0.833313 10.8934 1.05998 10.6667 1.33331 10.6667H2.66665C2.93998 10.6667 3.16665 10.8934 3.16665 11.1667C3.16665 11.4401 2.94665 11.6667 2.66665 11.6667Z" fill="#435060"/>
</svg>