<svg xmlns="http://www.w3.org/2000/svg" width="16" height="17" viewBox="0 0 16 17" fill="none">
  <path d="M11.6333 15.6666C10.88 15.6666 10.0866 15.4866 9.26665 15.1399C8.46665 14.7999 7.65998 14.3333 6.87331 13.7666C6.09331 13.1933 5.33998 12.5533 4.62665 11.8533C3.91998 11.1399 3.27998 10.3866 2.71331 9.61325C2.13998 8.81325 1.67998 8.01325 1.35331 7.23992C1.00665 6.41325 0.833313 5.61325 0.833313 4.85992C0.833313 4.33992 0.926646 3.84659 1.10665 3.38658C1.29331 2.91325 1.59331 2.47325 1.99998 2.09325C2.51331 1.58659 3.09998 1.33325 3.72665 1.33325C3.98665 1.33325 4.25331 1.39325 4.47998 1.49992C4.73998 1.61992 4.95998 1.79992 5.11998 2.03992L6.66665 4.21992C6.80665 4.41325 6.91331 4.59992 6.98665 4.78658C7.07331 4.98658 7.11998 5.18659 7.11998 5.37992C7.11998 5.63325 7.04665 5.87992 6.90665 6.11325C6.80665 6.29325 6.65331 6.48659 6.45998 6.67992L6.00665 7.15325C6.01331 7.17325 6.01998 7.18658 6.02665 7.19992C6.10665 7.33992 6.26665 7.57992 6.57331 7.93992C6.89998 8.31325 7.20665 8.65325 7.51331 8.96658C7.90665 9.35325 8.23331 9.65992 8.53998 9.91325C8.91998 10.2333 9.16665 10.3933 9.31331 10.4666L9.29998 10.4999L9.78665 10.0199C9.99331 9.81325 10.1933 9.65992 10.3866 9.55992C10.7533 9.33325 11.22 9.29325 11.6866 9.48658C11.86 9.55992 12.0466 9.65992 12.2466 9.79992L14.46 11.3733C14.7066 11.5399 14.8866 11.7533 14.9933 12.0066C15.0933 12.2599 15.14 12.4933 15.14 12.7266C15.14 13.0466 15.0666 13.3666 14.9266 13.6666C14.7866 13.9666 14.6133 14.2266 14.3933 14.4666C14.0133 14.8866 13.6 15.1866 13.12 15.3799C12.66 15.5666 12.16 15.6666 11.6333 15.6666ZM3.72665 2.33325C3.35998 2.33325 3.01998 2.49325 2.69331 2.81325C2.38665 3.09992 2.17331 3.41325 2.03998 3.75325C1.89998 4.09992 1.83331 4.46659 1.83331 4.85992C1.83331 5.47992 1.97998 6.15325 2.27331 6.84659C2.57331 7.55325 2.99331 8.28658 3.52665 9.01992C4.05998 9.75325 4.66665 10.4666 5.33331 11.1399C5.99998 11.7999 6.71998 12.4133 7.45998 12.9533C8.17998 13.4799 8.91998 13.9066 9.65331 14.2133C10.7933 14.6999 11.86 14.8133 12.74 14.4466C13.08 14.3066 13.38 14.0933 13.6533 13.7866C13.8066 13.6199 13.9266 13.4399 14.0266 13.2266C14.1066 13.0599 14.1466 12.8866 14.1466 12.7133C14.1466 12.6066 14.1266 12.4999 14.0733 12.3799C14.0533 12.3399 14.0133 12.2666 13.8866 12.1799L11.6733 10.6066C11.54 10.5133 11.42 10.4466 11.3066 10.3999C11.16 10.3399 11.1 10.2799 10.8733 10.4199C10.74 10.4866 10.62 10.5866 10.4866 10.7199L9.97998 11.2199C9.71998 11.4733 9.31998 11.5333 9.01331 11.4199L8.83331 11.3399C8.55998 11.1933 8.23998 10.9666 7.88665 10.6666C7.56665 10.3933 7.21998 10.0733 6.79998 9.65992C6.47331 9.32658 6.14665 8.97325 5.80665 8.57992C5.49331 8.21325 5.26665 7.89992 5.12665 7.63992L5.04665 7.43992C5.00665 7.28658 4.99331 7.19992 4.99331 7.10659C4.99331 6.86658 5.07998 6.65325 5.24665 6.48658L5.74665 5.96658C5.87998 5.83325 5.97998 5.70658 6.04665 5.59325C6.09998 5.50659 6.11998 5.43325 6.11998 5.36659C6.11998 5.31325 6.09998 5.23325 6.06665 5.15325C6.01998 5.04659 5.94665 4.92658 5.85331 4.79992L4.30665 2.61325C4.23998 2.51992 4.15998 2.45325 4.05998 2.40659C3.95331 2.35992 3.83998 2.33325 3.72665 2.33325ZM9.29998 10.5066L9.19331 10.9599L9.37331 10.4933C9.33998 10.4866 9.31331 10.4933 9.29998 10.5066Z" fill="#435060"/>
</svg>