<svg width="16" height="17" viewBox="0 0 16 17" fill="none" xmlns="http://www.w3.org/2000/svg">
<g id="vuesax/outline/medal-star">
<g id="medal-star">
<path id="Vector" d="M7.99998 11.6666C7.73331 11.6666 7.46665 11.6466 7.21331 11.5999C5.79998 11.3932 4.51331 10.5799 3.69998 9.37325C3.13331 8.51992 2.83331 7.52659 2.83331 6.49992C2.83331 3.65325 5.15331 1.33325 7.99998 1.33325C10.8466 1.33325 13.1666 3.65325 13.1666 6.49992C13.1666 7.52659 12.8666 8.51992 12.3 9.37325C11.48 10.5866 10.1933 11.3933 8.76665 11.6066C8.53331 11.6466 8.26665 11.6666 7.99998 11.6666ZM7.99998 2.33325C5.69998 2.33325 3.83331 4.19992 3.83331 6.49992C3.83331 7.33325 4.07331 8.13325 4.52665 8.81325C5.18665 9.78659 6.21998 10.4399 7.36665 10.6066C7.79331 10.6799 8.21331 10.6799 8.60665 10.6066C9.77331 10.4399 10.8066 9.77991 11.4666 8.80658C11.92 8.12658 12.16 7.32658 12.16 6.49325C12.1666 4.19991 10.3 2.33325 7.99998 2.33325Z" fill="#FFA826"/>
<path id="Vector_2" d="M4.31319 15.5601C4.21986 15.5601 4.13319 15.5467 4.03986 15.5267C3.60652 15.4267 3.27319 15.0934 3.17319 14.6601L2.93986 13.6801C2.92652 13.6201 2.87986 13.5734 2.81319 13.5534L1.71319 13.2934C1.29986 13.1934 0.973191 12.8867 0.859858 12.4801C0.746525 12.0734 0.859858 11.6334 1.15986 11.3334L3.75986 8.7334C3.86652 8.62673 4.01319 8.5734 4.15986 8.58673C4.30652 8.60006 4.43986 8.68005 4.52652 8.80672C5.18652 9.78005 6.21986 10.4401 7.37319 10.6067C7.79986 10.6801 8.21986 10.6801 8.61319 10.6067C9.77986 10.4401 10.8132 9.78005 11.4732 8.80672C11.5532 8.68005 11.6932 8.60006 11.8399 8.58673C11.9865 8.5734 12.1332 8.62673 12.2399 8.7334L14.8399 11.3334C15.1399 11.6334 15.2532 12.0734 15.1399 12.4801C15.0265 12.8867 14.6932 13.2001 14.2865 13.2934L13.1865 13.5534C13.1265 13.5667 13.0799 13.6134 13.0599 13.6801L12.8265 14.6601C12.7265 15.0934 12.3932 15.4267 11.9599 15.5267C11.5265 15.6334 11.0799 15.4801 10.7999 15.1401L7.99986 11.9201L5.19986 15.1467C4.97319 15.4134 4.65319 15.5601 4.31319 15.5601ZM4.05986 9.85339L1.86652 12.0467C1.80652 12.1067 1.81319 12.1734 1.82652 12.2134C1.83319 12.2467 1.86652 12.3134 1.94652 12.3267L3.04652 12.5867C3.47986 12.6867 3.81319 13.0201 3.91319 13.4534L4.14652 14.4334C4.16652 14.5201 4.23319 14.5467 4.27319 14.5601C4.31319 14.5667 4.37986 14.5734 4.43986 14.5067L6.99319 11.5667C5.85986 11.3467 4.81986 10.7401 4.05986 9.85339ZM9.00652 11.5601L11.5599 14.4934C11.6199 14.5667 11.6932 14.5667 11.7332 14.5534C11.7732 14.5467 11.8332 14.5134 11.8599 14.4267L12.0932 13.4467C12.1932 13.0134 12.5265 12.6801 12.9599 12.5801L14.0599 12.3201C14.1399 12.3001 14.1732 12.2401 14.1799 12.2067C14.1932 12.1734 14.1999 12.1001 14.1399 12.0401L11.9465 9.84672C11.1799 10.7334 10.1465 11.3401 9.00652 11.5601Z" fill="#FFA826"/>
<path id="Vector_3" d="M9.26011 9.09326C9.08678 9.09326 8.88011 9.04659 8.63345 8.89992L8.00011 8.51992L7.36678 8.89325C6.78678 9.23992 6.40678 9.03992 6.26678 8.93992C6.12678 8.83992 5.82678 8.53992 5.98011 7.87992L6.14011 7.19326L5.60678 6.69991C5.31345 6.40658 5.20678 6.05326 5.30678 5.73326C5.40678 5.41326 5.70011 5.18658 6.11345 5.11991L6.82678 4.99992L7.16678 4.25326C7.36011 3.87326 7.66011 3.65991 8.00011 3.65991C8.34011 3.65991 8.64678 3.87993 8.83345 4.25993L9.22678 5.04659L9.88678 5.12659C10.2934 5.19325 10.5868 5.41991 10.6934 5.73991C10.7934 6.05991 10.6868 6.41325 10.3934 6.70658L9.84011 7.25993L10.0134 7.87992C10.1668 8.53992 9.86678 8.83992 9.72678 8.93992C9.65345 8.99992 9.49345 9.09326 9.26011 9.09326ZM6.40678 6.09326L6.86678 6.55324C7.08011 6.76658 7.18678 7.12659 7.12011 7.41992L6.99345 7.95325L7.52678 7.63991C7.81345 7.47325 8.20011 7.47325 8.48011 7.63991L9.01345 7.95325L8.89345 7.41992C8.82678 7.11992 8.92678 6.76658 9.14011 6.55324L9.60011 6.09326L9.02011 5.99325C8.74011 5.94658 8.46011 5.73993 8.33345 5.48659L8.00011 4.83325L7.66678 5.49992C7.54678 5.74659 7.26678 5.95993 6.98678 6.00659L6.40678 6.09326Z" fill="#FFA826"/>
</g>
</g>
</svg>
