<svg xmlns="http://www.w3.org/2000/svg" width="25" height="24" viewBox="0 0 25 24" fill="none">
  <path d="M17.55 20.28C16.57 21.23 15.5 21.08 14.47 20.63C13.38 20.17 12.38 20.15 11.23 20.63C9.79 21.25 9.03 21.07 8.17 20.28C3.29 15.25 4.01 7.59 9.55 7.31C10.9 7.38 11.84 8.05 12.63 8.11C13.81 7.87 14.94 7.18 16.2 7.27C17.71 7.39 18.85 7.99 19.6 9.07C16.48 10.94 17.22 15.05 20.08 16.2C19.51 17.7 18.77 19.19 17.54 20.29L17.55 20.28ZM12.53 7.25C12.38 5.02 14.19 3.18 16.27 3C16.56 5.58 13.93 7.5 12.53 7.25Z" fill="#435060"/>
</svg>