<svg xmlns="http://www.w3.org/2000/svg" width="16" height="17" viewBox="0 0 16 17" fill="none">
  <path d="M8 13C7.72667 13 7.5 12.7733 7.5 12.5V10.5C7.5 10.2267 7.72667 10 8 10C8.27333 10 8.5 10.2267 8.5 10.5V12.5C8.5 12.7733 8.27333 13 8 13Z" fill="#5D3E9F"/>
  <path d="M11.7333 15.54H4.26664C3.05331 15.54 1.94664 14.6066 1.74664 13.4133L0.859974 8.09996C0.713307 7.2733 1.11997 6.2133 1.77997 5.68663L6.39997 1.98663C7.29331 1.26663 8.69997 1.2733 9.59997 1.9933L14.22 5.68663C14.8733 6.2133 15.2733 7.2733 15.14 8.09996L14.2533 13.4066C14.0533 14.5866 12.92 15.54 11.7333 15.54ZM7.99331 2.4533C7.63997 2.4533 7.28664 2.55996 7.02664 2.76663L2.40664 6.4733C2.03331 6.7733 1.76664 7.46663 1.84664 7.93996L2.73331 13.2466C2.85331 13.9466 3.55331 14.54 4.26664 14.54H11.7333C12.4466 14.54 13.1466 13.9466 13.2666 13.24L14.1533 7.9333C14.2266 7.46663 13.96 6.75996 13.5933 6.46663L8.97331 2.7733C8.70664 2.55996 8.34664 2.4533 7.99331 2.4533Z" fill="#5D3E9F"/>
</svg>