<svg width="16" height="17" viewBox="0 0 16 17" fill="none" xmlns="http://www.w3.org/2000/svg">
<g id="vuesax/outline/search-normal">
<g id="search-normal">
<path id="Vector" d="M7.66665 14.9999C3.89998 14.9999 0.833313 11.9333 0.833313 8.16659C0.833313 4.39992 3.89998 1.33325 7.66665 1.33325C11.4333 1.33325 14.5 4.39992 14.5 8.16659C14.5 11.9333 11.4333 14.9999 7.66665 14.9999ZM7.66665 2.33325C4.44665 2.33325 1.83331 4.95325 1.83331 8.16659C1.83331 11.3799 4.44665 13.9999 7.66665 13.9999C10.8866 13.9999 13.5 11.3799 13.5 8.16659C13.5 4.95325 10.8866 2.33325 7.66665 2.33325Z" fill="#435060"/>
<path id="Vector_2" d="M14.6667 15.6666C14.54 15.6666 14.4134 15.62 14.3134 15.52L12.98 14.1866C12.7867 13.9933 12.7867 13.6733 12.98 13.48C13.1734 13.2866 13.4934 13.2866 13.6867 13.48L15.02 14.8133C15.2134 15.0066 15.2134 15.3266 15.02 15.52C14.92 15.62 14.7934 15.6666 14.6667 15.6666Z" fill="#435060"/>
</g>
</g>
</svg>
