<svg width="16" height="17" viewBox="0 0 16 17" fill="none" xmlns="http://www.w3.org/2000/svg">
<g id="ri:robot-3-line">
<path id="Vector" d="M7.33335 1.1665V1.83317H4.66669C4.13625 1.83317 3.62755 2.04388 3.25247 2.41896C2.8774 2.79403 2.66669 3.30274 2.66669 3.83317V5.83317C2.66669 6.71723 3.01788 7.56507 3.643 8.19019C4.26812 8.81531 5.11597 9.1665 6.00002 9.1665H10C10.8841 9.1665 11.7319 8.81531 12.357 8.19019C12.9822 7.56507 13.3334 6.71723 13.3334 5.83317V3.83317C13.3334 3.30274 13.1226 2.79403 12.7476 2.41896C12.3725 2.04388 11.8638 1.83317 11.3334 1.83317H8.66669V1.1665H7.33335ZM4.00002 3.83317C4.00002 3.65636 4.07026 3.48679 4.19528 3.36177C4.32031 3.23674 4.48988 3.1665 4.66669 3.1665H11.3334C11.5102 3.1665 11.6797 3.23674 11.8048 3.36177C11.9298 3.48679 12 3.65636 12 3.83317V5.83317C12 6.3636 11.7893 6.87231 11.4142 7.24738C11.0392 7.62246 10.5305 7.83317 10 7.83317H6.00002C5.46959 7.83317 4.96088 7.62246 4.58581 7.24738C4.21073 6.87231 4.00002 6.3636 4.00002 5.83317V3.83317ZM6.33335 6.49984C6.59857 6.49984 6.85292 6.39448 7.04046 6.20694C7.228 6.01941 7.33335 5.76505 7.33335 5.49984C7.33335 5.23462 7.228 4.98027 7.04046 4.79273C6.85292 4.60519 6.59857 4.49984 6.33335 4.49984C6.06814 4.49984 5.81378 4.60519 5.62625 4.79273C5.43871 4.98027 5.33335 5.23462 5.33335 5.49984C5.33335 5.76505 5.43871 6.01941 5.62625 6.20694C5.81378 6.39448 6.06814 6.49984 6.33335 6.49984ZM9.66669 6.49984C9.9319 6.49984 10.1863 6.39448 10.3738 6.20694C10.5613 6.01941 10.6667 5.76505 10.6667 5.49984C10.6667 5.23462 10.5613 4.98027 10.3738 4.79273C10.1863 4.60519 9.9319 4.49984 9.66669 4.49984C9.40147 4.49984 9.14712 4.60519 8.95958 4.79273C8.77204 4.98027 8.66669 5.23462 8.66669 5.49984C8.66669 5.76505 8.77204 6.01941 8.95958 6.20694C9.14712 6.39448 9.40147 6.49984 9.66669 6.49984ZM4.00002 15.1665C4.00002 14.1056 4.42145 13.0882 5.17159 12.3381C5.92174 11.5879 6.93915 11.1665 8.00002 11.1665C9.06089 11.1665 10.0783 11.5879 10.8284 12.3381C11.5786 13.0882 12 14.1056 12 15.1665H13.3334C13.3334 13.752 12.7715 12.3955 11.7713 11.3953C10.7711 10.3951 9.41451 9.83317 8.00002 9.83317C6.58553 9.83317 5.22898 10.3951 4.22878 11.3953C3.22859 12.3955 2.66669 13.752 2.66669 15.1665H4.00002Z" fill="#435060"/>
</g>
</svg>
