<svg width="16" height="16" viewBox="0 0 16 16" fill="none" xmlns="http://www.w3.org/2000/svg">
<g id="vuesax/outline/heart-tick">
<g id="heart-tick">
<path id="Vector" d="M11.4666 15.1666C10.1733 15.1666 8.95993 14.4799 8.29993 13.3666C7.95327 12.8066 7.7666 12.1399 7.7666 11.4666C7.7666 9.42659 9.4266 7.7666 11.4666 7.7666C13.5066 7.7666 15.1666 9.42659 15.1666 11.4666C15.1666 12.1466 14.9799 12.8066 14.6266 13.3799C13.9733 14.4799 12.7599 15.1666 11.4666 15.1666ZM11.4666 8.7666C9.97993 8.7666 8.7666 9.97993 8.7666 11.4666C8.7666 11.9599 8.89993 12.4399 9.15327 12.8533C9.6466 13.6799 10.5066 14.1666 11.4666 14.1666C12.4266 14.1666 13.2866 13.6799 13.7733 12.8599C14.0333 12.4399 14.1666 11.9599 14.1666 11.4666C14.1666 9.97993 12.9533 8.7666 11.4666 8.7666Z" fill="#EF2940"/>
<path id="Vector_2" d="M11.0067 12.7533C10.88 12.7533 10.7533 12.7066 10.6533 12.6066L9.86668 11.8199C9.67335 11.6266 9.67335 11.3066 9.86668 11.1133C10.06 10.9199 10.38 10.9199 10.5733 11.1133L11.02 11.56L12.3733 10.3066C12.58 10.12 12.8933 10.1333 13.08 10.3333C13.2667 10.5333 13.2533 10.8533 13.0533 11.0399L11.3467 12.6133C11.2533 12.7133 11.1267 12.7533 11.0067 12.7533Z" fill="#EF2940"/>
<path id="Vector_3" d="M8 14.4333C7.79333 14.4333 7.58667 14.4067 7.42 14.3467C5.71333 13.7667 0.833333 10.94 0.833333 5.79333C0.833333 3.46 2.72 1.56665 5.04 1.56665C6.14667 1.56665 7.22 2.01333 8 2.79333C8.78 2.01333 9.85333 1.56665 10.96 1.56665C13.28 1.56665 15.1667 3.46 15.1667 5.79333C15.1667 7.09334 14.8533 8.34001 14.2333 9.50667C14.16 9.64667 14.02 9.74668 13.86 9.76668C13.7 9.78668 13.54 9.73332 13.4267 9.61332C12.9067 9.06666 12.2133 8.76001 11.4667 8.76001C9.98 8.76001 8.76667 9.97334 8.76667 11.46C8.76667 12.12 9.01333 12.76 9.46 13.26C9.56667 13.38 9.60667 13.54 9.57333 13.6933C9.54 13.8467 9.43333 13.98 9.29333 14.0467C9.02667 14.1667 8.78667 14.2667 8.56667 14.34C8.40667 14.4067 8.20667 14.4333 8 14.4333ZM5.04 2.56665C3.27333 2.56665 1.83333 4.01333 1.83333 5.79333C1.83333 10.3533 6.21333 12.8733 7.74667 13.4C7.87333 13.4467 8.12667 13.44 8.24667 13.4C8.26667 13.3933 8.28667 13.3867 8.30667 13.38C7.95333 12.8067 7.76667 12.1467 7.76667 11.4667C7.76667 9.42667 9.42667 7.76668 11.4667 7.76668C12.24 7.76668 13 8.01334 13.6267 8.46667C13.9867 7.61334 14.1667 6.72 14.1667 5.79333C14.1667 4.01333 12.7267 2.56665 10.96 2.56665C9.96 2.56665 9 3.04669 8.4 3.85335C8.21333 4.10669 7.78667 4.10669 7.6 3.85335C7 3.04669 6.04 2.56665 5.04 2.56665Z" fill="#EF2940"/>
</g>
</g>
</svg>
