<svg xmlns="http://www.w3.org/2000/svg" width="21" height="20" viewBox="0 0 21 20" fill="none">
  <path d="M18.9024 9.49609C18.2158 8.04961 17.3987 6.86992 16.4512 5.95703L15.4574 6.95078C16.2678 7.72519 16.9736 8.73828 17.584 10C15.959 13.3633 13.6523 14.9609 10.5 14.9609C9.55378 14.9609 8.68223 14.8152 7.88536 14.5238L6.8086 15.6006C7.91537 16.1117 9.14584 16.3672 10.5 16.3672C14.2539 16.3672 17.0547 14.4121 18.9024 10.502C18.9766 10.3447 19.0152 10.1729 19.0152 9.99902C19.0152 9.82511 18.9766 9.65335 18.9024 9.49609ZM17.6607 3.23359L16.8281 2.4C16.8136 2.38547 16.7964 2.37395 16.7774 2.36608C16.7585 2.35822 16.7381 2.35417 16.7176 2.35417C16.6971 2.35417 16.6767 2.35822 16.6578 2.36608C16.6388 2.37395 16.6215 2.38547 16.607 2.4L14.4709 4.53515C13.2932 3.93359 11.9695 3.63281 10.5 3.63281C6.7461 3.63281 3.94532 5.58789 2.09766 9.49804C2.0234 9.6553 1.98488 9.82706 1.98488 10.001C1.98488 10.1749 2.0234 10.3466 2.09766 10.5039C2.83581 12.0586 3.72449 13.3048 4.76368 14.2424L2.69688 16.3086C2.6676 16.3379 2.65115 16.3776 2.65115 16.419C2.65115 16.4605 2.6676 16.5002 2.69688 16.5295L3.53067 17.3633C3.55997 17.3926 3.5997 17.409 3.64112 17.409C3.68254 17.409 3.72227 17.3926 3.75157 17.3633L17.6607 3.45469C17.6753 3.44017 17.6868 3.42294 17.6947 3.40397C17.7025 3.385 17.7066 3.36467 17.7066 3.34414C17.7066 3.3236 17.7025 3.30327 17.6947 3.2843C17.6868 3.26534 17.6753 3.2481 17.6607 3.23359ZM3.41602 10C5.04297 6.63672 7.34962 5.03906 10.5 5.03906C11.5652 5.03906 12.5338 5.22187 13.4125 5.59355L12.0395 6.9666C11.3892 6.61965 10.6446 6.49089 9.91564 6.59931C9.18663 6.70772 8.51177 7.04758 7.99061 7.56873C7.46946 8.08989 7.12961 8.76475 7.02119 9.49376C6.91277 10.2228 7.04154 10.9673 7.38848 11.6176L5.75919 13.2469C4.85743 12.451 4.08008 11.3727 3.41602 10ZM8.23438 10C8.23472 9.65559 8.3163 9.31612 8.47249 9.00917C8.62867 8.70222 8.85507 8.43643 9.13327 8.23341C9.41147 8.03039 9.73365 7.89586 10.0736 7.84074C10.4136 7.78563 10.7618 7.81148 11.0898 7.91621L8.33809 10.668C8.26912 10.452 8.23413 10.2267 8.23438 10Z" fill="#8F94A8"/>
  <path d="M10.4219 12.1875C10.3543 12.1875 10.2877 12.1844 10.2217 12.1783L9.19003 13.21C9.81052 13.4476 10.4866 13.5004 11.1364 13.362C11.7863 13.2236 12.3821 12.8999 12.852 12.4301C13.3218 11.9603 13.6455 11.3644 13.7839 10.7145C13.9223 10.0647 13.8695 9.38865 13.6318 8.76816L12.6002 9.7998C12.6062 9.86581 12.6094 9.93242 12.6094 9.99999C12.6095 10.2873 12.553 10.5718 12.4432 10.8373C12.3333 11.1028 12.1722 11.344 11.969 11.5471C11.7659 11.7503 11.5246 11.9114 11.2592 12.0213C10.9937 12.1312 10.7092 12.1876 10.4219 12.1875Z" fill="#8F94A8"/>
</svg>