<svg xmlns="http://www.w3.org/2000/svg" width="16" height="17" viewBox="0 0 16 17" fill="none">
  <path d="M10.16 15.3467H10.0733C7.11332 15.3467 5.68666 14.18 5.43999 11.5667C5.41332 11.2933 5.61332 11.0467 5.89332 11.02C6.15999 10.9933 6.41332 11.2 6.43999 11.4733C6.63332 13.5667 7.61999 14.3467 10.08 14.3467H10.1667C12.88 14.3467 13.84 13.3867 13.84 10.6733V6.32665C13.84 3.61332 12.88 2.65332 10.1667 2.65332H10.08C7.60666 2.65332 6.61999 3.44665 6.43999 5.57999C6.40666 5.85332 6.17332 6.05999 5.89332 6.03332C5.61332 6.01332 5.41332 5.76665 5.43332 5.49332C5.65999 2.83999 7.09332 1.65332 10.0733 1.65332H10.16C13.4333 1.65332 14.8333 3.05332 14.8333 6.32665V10.6733C14.8333 13.9467 13.4333 15.3467 10.16 15.3467Z" fill="#435060"/>
  <path d="M10 9H2.41333C2.14 9 1.91333 8.77333 1.91333 8.5C1.91333 8.22667 2.14 8 2.41333 8H10C10.2733 8 10.5 8.22667 10.5 8.5C10.5 8.77333 10.2733 9 10 9Z" fill="#435060"/>
  <path d="M3.9 11.2333C3.77333 11.2333 3.64667 11.1866 3.54667 11.0866L1.31333 8.85331C1.12 8.65998 1.12 8.33998 1.31333 8.14664L3.54667 5.91331C3.74 5.71998 4.06 5.71998 4.25333 5.91331C4.44667 6.10664 4.44667 6.42664 4.25333 6.61998L2.37333 8.49998L4.25333 10.38C4.44667 10.5733 4.44667 10.8933 4.25333 11.0866C4.16 11.1866 4.02667 11.2333 3.9 11.2333Z" fill="#435060"/>
</svg>