<svg xmlns="http://www.w3.org/2000/svg" width="16" height="17" viewBox="0 0 16 17" fill="none">
  <path d="M8 11C6.62 11 5.5 9.88 5.5 8.5C5.5 7.12 6.62 6 8 6C9.38 6 10.5 7.12 10.5 8.5C10.5 9.88 9.38 11 8 11ZM8 7C7.17333 7 6.5 7.67333 6.5 8.5C6.5 9.32667 7.17333 10 8 10C8.82667 10 9.5 9.32667 9.5 8.5C9.5 7.67333 8.82667 7 8 7Z" fill="#435060"/>
  <path d="M10.14 15.2934C9.99998 15.2934 9.85998 15.2734 9.71998 15.2401C9.30665 15.1268 8.95998 14.8668 8.73998 14.5001L8.65998 14.3668C8.26665 13.6868 7.72665 13.6868 7.33331 14.3668L7.25998 14.4934C7.03998 14.8668 6.69331 15.1334 6.27998 15.2401C5.85998 15.3534 5.42665 15.2934 5.05998 15.0734L3.91331 14.4134C3.50665 14.1801 3.21331 13.8001 3.08665 13.3401C2.96665 12.8801 3.02665 12.4068 3.25998 12.0001C3.45331 11.6601 3.50665 11.3534 3.39331 11.1601C3.27998 10.9668 2.99331 10.8534 2.59998 10.8534C1.62665 10.8534 0.833313 10.0601 0.833313 9.08678V7.91344C0.833313 6.94011 1.62665 6.14678 2.59998 6.14678C2.99331 6.14678 3.27998 6.03344 3.39331 5.84011C3.50665 5.64678 3.45998 5.34011 3.25998 5.00011C3.02665 4.59344 2.96665 4.11344 3.08665 3.66011C3.20665 3.20011 3.49998 2.82011 3.91331 2.58678L5.06665 1.92678C5.81998 1.48011 6.81331 1.74011 7.26665 2.50678L7.34665 2.64011C7.73998 3.32011 8.27998 3.32011 8.67331 2.64011L8.74665 2.51344C9.19998 1.74011 10.1933 1.48011 10.9533 1.93344L12.1 2.59344C12.5066 2.82678 12.8 3.20678 12.9266 3.66678C13.0466 4.12678 12.9866 4.60011 12.7533 5.00678C12.56 5.34678 12.5066 5.65344 12.62 5.84678C12.7333 6.04011 13.02 6.15344 13.4133 6.15344C14.3866 6.15344 15.18 6.94678 15.18 7.92011V9.09344C15.18 10.0668 14.3866 10.8601 13.4133 10.8601C13.02 10.8601 12.7333 10.9734 12.62 11.1668C12.5066 11.3601 12.5533 11.6668 12.7533 12.0068C12.9866 12.4134 13.0533 12.8934 12.9266 13.3468C12.8066 13.8068 12.5133 14.1868 12.1 14.4201L10.9466 15.0801C10.6933 15.2201 10.42 15.2934 10.14 15.2934ZM7.99998 12.8268C8.59331 12.8268 9.14665 13.2001 9.52665 13.8601L9.59998 13.9868C9.67998 14.1268 9.81331 14.2268 9.97331 14.2668C10.1333 14.3068 10.2933 14.2868 10.4266 14.2068L11.58 13.5401C11.7533 13.4401 11.8866 13.2734 11.94 13.0734C11.9933 12.8734 11.9666 12.6668 11.8666 12.4934C11.4866 11.8401 11.44 11.1668 11.7333 10.6534C12.0266 10.1401 12.6333 9.84678 13.3933 9.84678C13.82 9.84678 14.16 9.50678 14.16 9.08011V7.90678C14.16 7.48678 13.82 7.14011 13.3933 7.14011C12.6333 7.14011 12.0266 6.84678 11.7333 6.33344C11.44 5.82011 11.4866 5.14678 11.8666 4.49344C11.9666 4.32011 11.9933 4.11344 11.94 3.91344C11.8866 3.71344 11.76 3.55344 11.5866 3.44678L10.4333 2.78678C10.1466 2.61344 9.76665 2.71344 9.59331 3.00678L9.51998 3.13344C9.13998 3.79344 8.58665 4.16678 7.99331 4.16678C7.39998 4.16678 6.84665 3.79344 6.46665 3.13344L6.39331 3.00011C6.22665 2.72011 5.85331 2.62011 5.56665 2.78678L4.41331 3.45344C4.23998 3.55344 4.10665 3.72011 4.05331 3.92011C3.99998 4.12011 4.02665 4.32678 4.12665 4.50011C4.50665 5.15344 4.55331 5.82678 4.25998 6.34011C3.96665 6.85344 3.35998 7.14678 2.59998 7.14678C2.17331 7.14678 1.83331 7.48678 1.83331 7.91344V9.08678C1.83331 9.50678 2.17331 9.85344 2.59998 9.85344C3.35998 9.85344 3.96665 10.1468 4.25998 10.6601C4.55331 11.1734 4.50665 11.8468 4.12665 12.5001C4.02665 12.6734 3.99998 12.8801 4.05331 13.0801C4.10665 13.2801 4.23331 13.4401 4.40665 13.5468L5.55998 14.2068C5.69998 14.2934 5.86665 14.3134 6.01998 14.2734C6.17998 14.2334 6.31331 14.1268 6.39998 13.9868L6.47331 13.8601C6.85331 13.2068 7.40665 12.8268 7.99998 12.8268Z" fill="#435060"/>
</svg>