<svg width="16" height="17" viewBox="0 0 16 17" fill="none" xmlns="http://www.w3.org/2000/svg">
<g id="vuesax/outline/building">
<g id="building">
<path id="Vector" d="M8.33335 15.6665H2.72002C1.67335 15.6665 0.813354 14.8265 0.813354 13.7865V3.89313C0.813354 2.87313 1.19335 2.0798 1.88669 1.64647C2.58669 1.20647 3.49335 1.2198 4.43335 1.68647L7.39335 3.1398C8.20002 3.5398 8.83335 4.54647 8.83335 5.4398V15.1665C8.83335 15.4398 8.60669 15.6665 8.33335 15.6665ZM3.04002 2.33313C2.80669 2.33313 2.59335 2.38647 2.41335 2.4998C2.02669 2.7398 1.81335 3.2398 1.81335 3.89313V13.7865C1.81335 14.2731 2.22002 14.6665 2.72002 14.6665H7.83335V5.4398C7.83335 4.92647 7.42002 4.26647 6.94669 4.0398L3.98669 2.58647C3.64669 2.4198 3.32669 2.33313 3.04002 2.33313Z" fill="#435060"/>
<path id="Vector_2" d="M12.54 15.6665H8.33331C8.05998 15.6665 7.83331 15.4399 7.83331 15.1665V7.44652C7.83331 7.29319 7.89998 7.15319 8.01998 7.05985C8.13998 6.96652 8.28665 6.92652 8.43998 6.95985L8.75331 7.02652L13.1133 7.99985C14.44 8.29319 15.1066 9.07319 15.1466 10.3999C15.1533 10.3999 15.1533 10.4665 15.1533 10.5399V13.0599C15.1466 14.7665 14.2466 15.6665 12.54 15.6665ZM8.83331 14.6665H12.54C13.7133 14.6665 14.1466 14.2332 14.1466 13.0599V10.4865C14.1133 9.57319 13.7666 9.16652 12.8933 8.97319L8.83331 8.06652V14.6665Z" fill="#435060"/>
<path id="Vector_3" d="M5.98002 7H3.66669C3.39335 7 3.16669 6.77333 3.16669 6.5C3.16669 6.22667 3.39335 6 3.66669 6H5.98002C6.25335 6 6.48002 6.22667 6.48002 6.5C6.48002 6.77333 6.26002 7 5.98002 7Z" fill="#435060"/>
<path id="Vector_4" d="M5.98002 9.66699H3.66669C3.39335 9.66699 3.16669 9.44033 3.16669 9.16699C3.16669 8.89366 3.39335 8.66699 3.66669 8.66699H5.98002C6.25335 8.66699 6.48002 8.89366 6.48002 9.16699C6.48002 9.44033 6.26002 9.66699 5.98002 9.66699Z" fill="#435060"/>
<path id="Vector_5" d="M10.1467 12.3336C9.04667 12.3336 8.14667 11.4336 8.14667 10.3336V7.51365C8.14667 7.36031 8.21333 7.22031 8.33333 7.12031C8.45333 7.02031 8.60667 6.98698 8.75333 7.02031L11.7533 7.69365C11.98 7.74698 12.1467 7.94698 12.1467 8.18031V10.327C12.1467 11.4336 11.2533 12.3336 10.1467 12.3336ZM9.14667 8.14031V10.3336C9.14667 10.887 9.59333 11.3336 10.1467 11.3336C10.7 11.3336 11.1467 10.887 11.1467 10.3336V8.58698L9.14667 8.14031Z" fill="#435060"/>
<path id="Vector_6" d="M13.1467 12.3334C12.0467 12.3334 11.1467 11.4334 11.1467 10.3334V8.18675C11.1467 8.03342 11.2133 7.89342 11.3333 7.80009C11.4533 7.70675 11.6067 7.66675 11.7533 7.70009L13.1067 8.00009C14.4333 8.29342 15.1 9.07342 15.14 10.4001C15.14 10.4134 15.14 10.4268 15.14 10.4401C15.0867 11.5001 14.2133 12.3334 13.1467 12.3334ZM12.1467 8.80675V10.3334C12.1467 10.8868 12.5933 11.3334 13.1467 11.3334C13.6733 11.3334 14.1067 10.9268 14.14 10.4068C14.1067 9.56675 13.76 9.16675 12.8933 8.97342L12.1467 8.80675Z" fill="#435060"/>
</g>
</g>
</svg>
