<svg width="16" height="16" viewBox="0 0 16 16" fill="none" xmlns="http://www.w3.org/2000/svg">
<g id="vuesax/outline/microphone-2">
<g id="microphone-2">
<path id="Vector" d="M8.00001 10.8335C6.25334 10.8335 4.83334 9.4135 4.83334 7.66683V4.00016C4.83334 2.2535 6.25334 0.833496 8.00001 0.833496C9.74668 0.833496 11.1667 2.2535 11.1667 4.00016V7.66683C11.1667 9.4135 9.74668 10.8335 8.00001 10.8335ZM8.00001 1.8335C6.80668 1.8335 5.83334 2.80683 5.83334 4.00016V7.66683C5.83334 8.86016 6.80668 9.8335 8.00001 9.8335C9.19334 9.8335 10.1667 8.86016 10.1667 7.66683V4.00016C10.1667 2.80683 9.19334 1.8335 8.00001 1.8335Z" fill="#435060"/>
<path id="Vector_2" d="M7.99999 13.1664C4.91333 13.1664 2.39999 10.6531 2.39999 7.56644V6.43311C2.39999 6.15977 2.62666 5.93311 2.89999 5.93311C3.17333 5.93311 3.39999 6.15977 3.39999 6.43311V7.56644C3.39999 10.0998 5.46666 12.1664 7.99999 12.1664C10.5333 12.1664 12.6 10.0998 12.6 7.56644V6.43311C12.6 6.15977 12.8267 5.93311 13.1 5.93311C13.3733 5.93311 13.6 6.15977 13.6 6.43311V7.56644C13.6 10.6531 11.0867 13.1664 7.99999 13.1664Z" fill="#435060"/>
<path id="Vector_3" d="M8.92667 4.78655C8.87333 4.78655 8.81333 4.77988 8.75333 4.75988C8.26667 4.57988 7.73333 4.57988 7.24667 4.75988C6.98667 4.85322 6.7 4.71988 6.60667 4.45988C6.51333 4.19988 6.64667 3.91322 6.90667 3.81988C7.61333 3.56655 8.39333 3.56655 9.1 3.81988C9.36 3.91322 9.49333 4.19988 9.4 4.45988C9.32 4.65988 9.12667 4.78655 8.92667 4.78655Z" fill="#435060"/>
<path id="Vector_4" d="M8.53333 6.19988C8.48667 6.19988 8.44667 6.19322 8.4 6.17988C8.13333 6.10655 7.86 6.10655 7.59333 6.17988C7.32667 6.25322 7.05333 6.09322 6.98 5.82655C6.90667 5.56655 7.06667 5.29322 7.33333 5.21988C7.76667 5.09988 8.23333 5.09988 8.66667 5.21988C8.93333 5.29322 9.09333 5.56655 9.02 5.83322C8.96 6.05322 8.75333 6.19988 8.53333 6.19988Z" fill="#435060"/>
<path id="Vector_5" d="M8 15.1665C7.72667 15.1665 7.5 14.9398 7.5 14.6665V12.6665C7.5 12.3932 7.72667 12.1665 8 12.1665C8.27333 12.1665 8.5 12.3932 8.5 12.6665V14.6665C8.5 14.9398 8.27333 15.1665 8 15.1665Z" fill="#435060"/>
</g>
</g>
</svg>
