<svg width="16" height="16" viewBox="0 0 16 16" fill="none" xmlns="http://www.w3.org/2000/svg">
<g id="vuesax/outline/call-received">
<g id="call-received">
<path id="Vector" d="M11.6333 15.1666C10.88 15.1666 10.0867 14.9866 9.26668 14.6399C8.46668 14.2999 7.66001 13.8333 6.87334 13.2666C6.08668 12.6933 5.33334 12.0466 4.62668 11.3466C3.92001 10.6333 3.28001 9.87992 2.71334 9.10658C2.14001 8.30658 1.68001 7.51325 1.35334 6.73325C1.00668 5.91325 0.833344 5.11325 0.833344 4.35992C0.833344 3.83992 0.926677 3.34659 1.10668 2.88658C1.30001 2.40659 1.59334 1.97325 2.00001 1.59325C2.51334 1.09325 3.10001 0.833252 3.72668 0.833252C3.98668 0.833252 4.25334 0.893252 4.48001 0.999919C4.74001 1.11992 4.96001 1.29992 5.12001 1.53992L6.66668 3.71992C6.80668 3.91325 6.91334 4.09992 6.98668 4.28658C7.07334 4.48658 7.12001 4.68659 7.12001 4.87992C7.12001 5.13325 7.04668 5.37992 6.90668 5.61325C6.80668 5.79325 6.65334 5.98659 6.46001 6.17992L6.00668 6.65325C6.01334 6.67325 6.02001 6.68658 6.02668 6.69992C6.10668 6.83992 6.26668 7.07992 6.57334 7.43992C6.89334 7.81325 7.20668 8.14658 7.51334 8.46658C7.91334 8.85992 8.23334 9.15992 8.54001 9.41325C8.92001 9.73325 9.16668 9.89325 9.31334 9.96658L9.30001 9.99992L9.78668 9.51992C9.99334 9.31325 10.1933 9.15992 10.3867 9.05992C10.7533 8.83325 11.22 8.79325 11.6867 8.98658C11.86 9.05992 12.0467 9.15992 12.2467 9.29992L14.46 10.8733C14.7 11.0399 14.8867 11.2533 14.9933 11.5066C15.0933 11.7599 15.14 11.9933 15.14 12.2266C15.14 12.5466 15.0667 12.8666 14.9267 13.1666C14.7867 13.4666 14.6133 13.7266 14.3933 13.9666C14.0133 14.3866 13.6 14.6866 13.12 14.8799C12.66 15.0666 12.16 15.1666 11.6333 15.1666ZM3.72668 1.83325C3.36001 1.83325 3.02001 1.99325 2.69334 2.31325C2.39334 2.59992 2.17334 2.91325 2.04001 3.25325C1.90001 3.59992 1.83334 3.96659 1.83334 4.35992C1.83334 4.97992 1.98001 5.65325 2.27334 6.34659C2.57334 7.05325 2.99334 7.78658 3.52668 8.51992C4.06001 9.25325 4.66668 9.96659 5.33334 10.6399C6.00001 11.2999 6.72001 11.9133 7.46001 12.4533C8.18001 12.9799 8.92001 13.4066 9.65334 13.7133C10.7933 14.1999 11.86 14.3133 12.74 13.9466C13.08 13.8066 13.38 13.5933 13.6533 13.2866C13.8067 13.1199 13.9267 12.9399 14.0267 12.7266C14.1067 12.5599 14.1467 12.3866 14.1467 12.2133C14.1467 12.1066 14.1267 11.9999 14.0733 11.8799C14.06 11.8466 14.0133 11.7666 13.8867 11.6799L11.6733 10.1066C11.54 10.0133 11.42 9.94658 11.3067 9.89992C11.1333 9.83325 11.02 9.82658 10.8733 9.91992C10.74 9.98658 10.62 10.0866 10.4867 10.2199L9.98001 10.7199C9.72001 10.9733 9.32001 11.0333 9.01334 10.9199L8.83334 10.8399C8.56001 10.6933 8.24001 10.4666 7.88668 10.1666C7.56001 9.89325 7.22668 9.57992 6.80001 9.15992C6.46668 8.81992 6.14668 8.46658 5.80668 8.07992C5.49334 7.71325 5.26668 7.39992 5.12668 7.13992L5.04001 6.93992C5.00001 6.79325 4.98668 6.70658 4.98668 6.61325C4.98668 6.37325 5.07334 6.15992 5.24001 5.99325L5.74001 5.47325C5.87334 5.33992 5.97334 5.21325 6.04001 5.09992C6.09334 5.01325 6.11334 4.93992 6.11334 4.87325C6.11334 4.81992 6.09334 4.73992 6.06001 4.65992C6.02001 4.54658 5.94668 4.43325 5.85334 4.29992L4.30668 2.11325C4.24001 2.01992 4.16001 1.95325 4.06001 1.90659C3.95334 1.85992 3.84001 1.83325 3.72668 1.83325ZM9.30001 10.0066L9.19334 10.4599L9.37334 9.99325C9.34668 9.98658 9.32001 9.99325 9.30001 10.0066Z" fill="#00A45F"/>
<path id="Vector_2" d="M11.3333 5.81336C11.2067 5.81336 11.08 5.7667 10.98 5.6667L9.64668 4.33336C9.45335 4.14003 9.45335 3.82003 9.64668 3.6267C9.84001 3.43336 10.16 3.43336 10.3533 3.6267L11.3333 4.6067L13.6467 2.30003C13.84 2.1067 14.16 2.1067 14.3533 2.30003C14.5467 2.49336 14.5467 2.81336 14.3533 3.0067L11.6867 5.67336C11.5867 5.76003 11.46 5.81336 11.3333 5.81336Z" fill="#00A45F"/>
</g>
</g>
</svg>
