<svg width="16" height="16" viewBox="0 0 16 16" fill="none" xmlns="http://www.w3.org/2000/svg">
<g id="vuesax/outline/call">
<g id="call">
<path id="Vector" d="M11.6333 15.1666C10.88 15.1666 10.0866 14.9866 9.26665 14.6399C8.46665 14.2999 7.65998 13.8333 6.87331 13.2666C6.09331 12.6933 5.33998 12.0533 4.62665 11.3533C3.91998 10.6399 3.27998 9.88659 2.71331 9.11325C2.13998 8.31325 1.67998 7.51325 1.35331 6.73992C1.00665 5.91325 0.833313 5.11325 0.833313 4.35992C0.833313 3.83992 0.926646 3.34659 1.10665 2.88658C1.29331 2.41325 1.59331 1.97325 1.99998 1.59325C2.51331 1.08659 3.09998 0.833252 3.72665 0.833252C3.98665 0.833252 4.25331 0.893252 4.47998 0.999919C4.73998 1.11992 4.95998 1.29992 5.11998 1.53992L6.66665 3.71992C6.80665 3.91325 6.91331 4.09992 6.98665 4.28658C7.07331 4.48658 7.11998 4.68659 7.11998 4.87992C7.11998 5.13325 7.04665 5.37992 6.90665 5.61325C6.80665 5.79325 6.65331 5.98659 6.45998 6.17992L6.00665 6.65325C6.01331 6.67325 6.01998 6.68658 6.02665 6.69992C6.10665 6.83992 6.26665 7.07992 6.57331 7.43992C6.89998 7.81325 7.20665 8.15325 7.51331 8.46658C7.90665 8.85325 8.23331 9.15992 8.53998 9.41325C8.91998 9.73325 9.16665 9.89325 9.31331 9.96658L9.29998 9.99992L9.78665 9.51992C9.99331 9.31325 10.1933 9.15992 10.3866 9.05992C10.7533 8.83325 11.22 8.79325 11.6866 8.98658C11.86 9.05992 12.0466 9.15992 12.2466 9.29992L14.46 10.8733C14.7066 11.0399 14.8866 11.2533 14.9933 11.5066C15.0933 11.7599 15.14 11.9933 15.14 12.2266C15.14 12.5466 15.0666 12.8666 14.9266 13.1666C14.7866 13.4666 14.6133 13.7266 14.3933 13.9666C14.0133 14.3866 13.6 14.6866 13.12 14.8799C12.66 15.0666 12.16 15.1666 11.6333 15.1666ZM3.72665 1.83325C3.35998 1.83325 3.01998 1.99325 2.69331 2.31325C2.38665 2.59992 2.17331 2.91325 2.03998 3.25325C1.89998 3.59992 1.83331 3.96659 1.83331 4.35992C1.83331 4.97992 1.97998 5.65325 2.27331 6.34659C2.57331 7.05325 2.99331 7.78658 3.52665 8.51992C4.05998 9.25325 4.66665 9.96659 5.33331 10.6399C5.99998 11.2999 6.71998 11.9133 7.45998 12.4533C8.17998 12.9799 8.91998 13.4066 9.65331 13.7133C10.7933 14.1999 11.86 14.3133 12.74 13.9466C13.08 13.8066 13.38 13.5933 13.6533 13.2866C13.8066 13.1199 13.9266 12.9399 14.0266 12.7266C14.1066 12.5599 14.1466 12.3866 14.1466 12.2133C14.1466 12.1066 14.1266 11.9999 14.0733 11.8799C14.0533 11.8399 14.0133 11.7666 13.8866 11.6799L11.6733 10.1066C11.54 10.0133 11.42 9.94658 11.3066 9.89992C11.16 9.83992 11.1 9.77992 10.8733 9.91992C10.74 9.98658 10.62 10.0866 10.4866 10.2199L9.97998 10.7199C9.71998 10.9733 9.31998 11.0333 9.01331 10.9199L8.83331 10.8399C8.55998 10.6933 8.23998 10.4666 7.88665 10.1666C7.56665 9.89325 7.21998 9.57325 6.79998 9.15992C6.47331 8.82658 6.14665 8.47325 5.80665 8.07992C5.49331 7.71325 5.26665 7.39992 5.12665 7.13992L5.04665 6.93992C5.00665 6.78658 4.99331 6.69992 4.99331 6.60659C4.99331 6.36658 5.07998 6.15325 5.24665 5.98658L5.74665 5.46658C5.87998 5.33325 5.97998 5.20658 6.04665 5.09325C6.09998 5.00659 6.11998 4.93325 6.11998 4.86659C6.11998 4.81325 6.09998 4.73325 6.06665 4.65325C6.01998 4.54659 5.94665 4.42658 5.85331 4.29992L4.30665 2.11325C4.23998 2.01992 4.15998 1.95325 4.05998 1.90659C3.95331 1.85992 3.83998 1.83325 3.72665 1.83325ZM9.29998 10.0066L9.19331 10.4599L9.37331 9.99325C9.33998 9.98658 9.31331 9.99325 9.29998 10.0066Z" fill="#5D3E9F"/>
</g>
</g>
</svg>
