<svg width="16" height="16" viewBox="0 0 16 16" fill="none" xmlns="http://www.w3.org/2000/svg">
<g id="vuesax/outline/arrow-right">
<g id="arrow-right">
<path id="Vector" d="M10.06 13.78C10.1867 13.78 10.3133 13.7333 10.4133 13.6333C10.6067 13.44 10.6067 13.12 10.4133 12.9267L6.06668 8.58001C5.74668 8.26001 5.74668 7.74001 6.06668 7.42001L10.4133 3.07335C10.6067 2.88001 10.6067 2.56001 10.4133 2.36668C10.22 2.17335 9.90002 2.17335 9.70668 2.36668L5.36002 6.71335C5.02002 7.05335 4.82668 7.51335 4.82668 8.00001C4.82668 8.48668 5.01335 8.94668 5.36002 9.28668L9.70668 13.6333C9.80668 13.7267 9.93335 13.78 10.06 13.78Z" fill="#435060"/>
</g>
</g>
</svg>
