<svg width="123" height="23" viewBox="0 0 123 23" fill="none" xmlns="http://www.w3.org/2000/svg">
<path fill-rule="evenodd" clip-rule="evenodd" d="M10 21.5C15.5228 21.5 20 17.0228 20 11.5C20 5.97715 15.5228 1.5 10 1.5C4.47715 1.5 0 5.97715 0 11.5C0 17.0228 4.47715 21.5 10 21.5ZM10 18.2272C13.7154 18.2272 16.7273 15.2153 16.7273 11.4999C16.7273 7.78455 13.7154 4.77265 10 4.77265C6.28464 4.77265 3.27273 7.78455 3.27273 11.4999C3.27273 15.2153 6.28464 18.2272 10 18.2272Z" fill="url(#paint0_linear_549_347)"/>
<path d="M34.82 4.8C36.8867 4.8 38.4867 5.37333 39.62 6.52C40.7533 7.65333 41.32 9.28 41.32 11.4C41.32 13.5067 40.7533 15.1333 39.62 16.28C38.4867 17.4267 36.8867 18 34.82 18H29.72V4.8H34.82ZM34.68 15.8C35.9333 15.8 36.8733 15.4267 37.5 14.68C38.14 13.92 38.46 12.8267 38.46 11.4C38.46 9.97333 38.14 8.88667 37.5 8.14C36.8733 7.38 35.9333 7 34.68 7H32.48V15.8H34.68ZM45.1364 6.56C44.5631 6.56 44.1364 6.44 43.8564 6.2C43.5764 5.94667 43.4364 5.58 43.4364 5.1C43.4364 4.60667 43.5764 4.24 43.8564 4C44.1364 3.74667 44.5631 3.62 45.1364 3.62C45.7097 3.62 46.1364 3.74667 46.4164 4C46.6964 4.24 46.8364 4.60667 46.8364 5.1C46.8364 5.58 46.6964 5.94667 46.4164 6.2C46.1364 6.44 45.7097 6.56 45.1364 6.56ZM46.4964 8V18H43.7564V8H46.4964ZM55.1009 11.62C55.1009 11.0467 54.9343 10.6 54.6009 10.28C54.2809 9.96 53.8543 9.8 53.3209 9.8C52.8276 9.8 52.3943 9.92667 52.0209 10.18C51.6476 10.4333 51.3743 10.8533 51.2009 11.44L48.8609 10.72C49.0876 9.84 49.5809 9.13333 50.3409 8.6C51.1143 8.06667 52.1476 7.8 53.4409 7.8C54.3209 7.8 55.0876 7.94 55.7409 8.22C56.3943 8.48667 56.9009 8.89333 57.2609 9.44C57.6343 9.98667 57.8209 10.6733 57.8209 11.5V15.56C57.8209 16.0667 58.0609 16.32 58.5409 16.32C58.7676 16.32 58.9809 16.2867 59.1809 16.22L59.0209 17.92C58.6743 18.0933 58.2409 18.18 57.7209 18.18C57.2543 18.18 56.8343 18.1 56.4609 17.94C56.0876 17.78 55.7943 17.54 55.5809 17.22C55.3676 16.8867 55.2609 16.4733 55.2609 15.98V15.9L55.7409 15.82C55.6609 16.3267 55.4409 16.76 55.0809 17.12C54.7209 17.4667 54.2809 17.7333 53.7609 17.92C53.2543 18.1067 52.7276 18.2 52.1809 18.2C51.5009 18.2 50.9143 18.1 50.4209 17.9C49.9276 17.6867 49.5476 17.38 49.2809 16.98C49.0143 16.58 48.8809 16.0867 48.8809 15.5C48.8809 14.7533 49.1209 14.1467 49.6009 13.68C50.0809 13.2 50.7676 12.8733 51.6609 12.7L55.4209 11.94L55.4009 13.64L53.0009 14.12C52.5476 14.2133 52.2009 14.34 51.9609 14.5C51.7343 14.6467 51.6209 14.8933 51.6209 15.24C51.6209 15.5733 51.7409 15.8267 51.9809 16C52.2343 16.1733 52.5343 16.26 52.8809 16.26C53.1609 16.26 53.4343 16.2267 53.7009 16.16C53.9676 16.0933 54.2076 15.9867 54.4209 15.84C54.6343 15.6933 54.8009 15.4933 54.9209 15.24C55.0409 14.9867 55.1009 14.68 55.1009 14.32V11.62ZM63.5853 3.62V14.92C63.5853 15.3867 63.6653 15.7133 63.8253 15.9C63.9853 16.0867 64.252 16.18 64.6253 16.18C64.852 16.18 65.0386 16.1667 65.1853 16.14C65.332 16.1 65.5186 16.0467 65.7453 15.98L65.5053 17.78C65.2786 17.9133 64.992 18.0133 64.6453 18.08C64.312 18.16 63.9786 18.2 63.6453 18.2C62.672 18.2 61.9586 17.9667 61.5053 17.5C61.0653 17.02 60.8453 16.26 60.8453 15.22V3.62H63.5853ZM71.912 18.2C70.8587 18.2 69.9387 17.9933 69.152 17.58C68.3787 17.1667 67.7787 16.5733 67.352 15.8C66.9254 15.0267 66.712 14.0933 66.712 13C66.712 11.9067 66.9254 10.9733 67.352 10.2C67.7787 9.42667 68.372 8.83333 69.132 8.42C69.9054 8.00667 70.7854 7.8 71.772 7.8C72.7854 7.8 73.6454 8.00667 74.352 8.42C75.0587 8.82 75.5987 9.37333 75.972 10.08C76.3454 10.7733 76.532 11.5667 76.532 12.46C76.532 12.7267 76.5254 12.98 76.512 13.22C76.4987 13.46 76.4787 13.6733 76.452 13.86H68.472V11.96H75.252L73.932 12.44C73.932 11.6 73.7387 10.9533 73.352 10.5C72.9787 10.0467 72.4454 9.82 71.752 9.82C71.2454 9.82 70.8054 9.94 70.432 10.18C70.072 10.42 69.7987 10.78 69.612 11.26C69.4254 11.7267 69.332 12.32 69.332 13.04C69.332 13.7467 69.432 14.3333 69.632 14.8C69.8454 15.2533 70.1387 15.5933 70.512 15.82C70.8987 16.0467 71.3587 16.16 71.892 16.16C72.4787 16.16 72.952 16.0467 73.312 15.82C73.672 15.5933 73.952 15.28 74.152 14.88L76.332 15.72C76.1187 16.24 75.792 16.6867 75.352 17.06C74.9254 17.4333 74.412 17.72 73.812 17.92C73.2254 18.1067 72.592 18.2 71.912 18.2ZM80.6053 8L83.2453 12.38L83.9853 12.36L87.9853 18H84.8053L82.0653 13.52L81.2653 13.44L77.4053 8H80.6053ZM87.9253 8L84.0653 13.38L83.2453 13.32L80.3253 18H77.2253L81.3653 12.32L82.1453 12.42L84.8253 8H87.9253ZM95.3353 11.62C95.3353 11.0467 95.1686 10.6 94.8353 10.28C94.5153 9.96 94.0886 9.8 93.5553 9.8C93.062 9.8 92.6286 9.92667 92.2553 10.18C91.882 10.4333 91.6086 10.8533 91.4353 11.44L89.0953 10.72C89.322 9.84 89.8153 9.13333 90.5753 8.6C91.3486 8.06667 92.382 7.8 93.6753 7.8C94.5553 7.8 95.322 7.94 95.9753 8.22C96.6286 8.48667 97.1353 8.89333 97.4953 9.44C97.8686 9.98667 98.0553 10.6733 98.0553 11.5V15.56C98.0553 16.0667 98.2953 16.32 98.7753 16.32C99.002 16.32 99.2153 16.2867 99.4153 16.22L99.2553 17.92C98.9086 18.0933 98.4753 18.18 97.9553 18.18C97.4886 18.18 97.0686 18.1 96.6953 17.94C96.322 17.78 96.0286 17.54 95.8153 17.22C95.602 16.8867 95.4953 16.4733 95.4953 15.98V15.9L95.9753 15.82C95.8953 16.3267 95.6753 16.76 95.3153 17.12C94.9553 17.4667 94.5153 17.7333 93.9953 17.92C93.4886 18.1067 92.962 18.2 92.4153 18.2C91.7353 18.2 91.1486 18.1 90.6553 17.9C90.162 17.6867 89.782 17.38 89.5153 16.98C89.2486 16.58 89.1153 16.0867 89.1153 15.5C89.1153 14.7533 89.3553 14.1467 89.8353 13.68C90.3153 13.2 91.002 12.8733 91.8953 12.7L95.6553 11.94L95.6353 13.64L93.2353 14.12C92.782 14.2133 92.4353 14.34 92.1953 14.5C91.9686 14.6467 91.8553 14.8933 91.8553 15.24C91.8553 15.5733 91.9753 15.8267 92.2153 16C92.4686 16.1733 92.7686 16.26 93.1153 16.26C93.3953 16.26 93.6686 16.2267 93.9353 16.16C94.202 16.0933 94.442 15.9867 94.6553 15.84C94.8686 15.6933 95.0353 15.4933 95.1553 15.24C95.2753 14.9867 95.3353 14.68 95.3353 14.32V11.62ZM102.734 14.94C103.267 14.94 103.687 15.0867 103.994 15.38C104.314 15.6733 104.474 16.0667 104.474 16.56C104.474 17.0667 104.314 17.4667 103.994 17.76C103.687 18.04 103.267 18.18 102.734 18.18C102.201 18.18 101.774 18.04 101.454 17.76C101.147 17.4667 100.994 17.0667 100.994 16.56C100.994 16.0667 101.147 15.6733 101.454 15.38C101.774 15.0867 102.201 14.94 102.734 14.94ZM112.679 11.62C112.679 11.0467 112.512 10.6 112.179 10.28C111.859 9.96 111.432 9.8 110.899 9.8C110.406 9.8 109.972 9.92667 109.599 10.18C109.226 10.4333 108.952 10.8533 108.779 11.44L106.439 10.72C106.666 9.84 107.159 9.13333 107.919 8.6C108.692 8.06667 109.726 7.8 111.019 7.8C111.899 7.8 112.666 7.94 113.319 8.22C113.972 8.48667 114.479 8.89333 114.839 9.44C115.212 9.98667 115.399 10.6733 115.399 11.5V15.56C115.399 16.0667 115.639 16.32 116.119 16.32C116.346 16.32 116.559 16.2867 116.759 16.22L116.599 17.92C116.252 18.0933 115.819 18.18 115.299 18.18C114.832 18.18 114.412 18.1 114.039 17.94C113.666 17.78 113.372 17.54 113.159 17.22C112.946 16.8867 112.839 16.4733 112.839 15.98V15.9L113.319 15.82C113.239 16.3267 113.019 16.76 112.659 17.12C112.299 17.4667 111.859 17.7333 111.339 17.92C110.832 18.1067 110.306 18.2 109.759 18.2C109.079 18.2 108.492 18.1 107.999 17.9C107.506 17.6867 107.126 17.38 106.859 16.98C106.592 16.58 106.459 16.0867 106.459 15.5C106.459 14.7533 106.699 14.1467 107.179 13.68C107.659 13.2 108.346 12.8733 109.239 12.7L112.999 11.94L112.979 13.64L110.579 14.12C110.126 14.2133 109.779 14.34 109.539 14.5C109.312 14.6467 109.199 14.8933 109.199 15.24C109.199 15.5733 109.319 15.8267 109.559 16C109.812 16.1733 110.112 16.26 110.459 16.26C110.739 16.26 111.012 16.2267 111.279 16.16C111.546 16.0933 111.786 15.9867 111.999 15.84C112.212 15.6933 112.379 15.4933 112.499 15.24C112.619 14.9867 112.679 14.68 112.679 14.32V11.62ZM119.843 6.56C119.27 6.56 118.843 6.44 118.563 6.2C118.283 5.94667 118.143 5.58 118.143 5.1C118.143 4.60667 118.283 4.24 118.563 4C118.843 3.74667 119.27 3.62 119.843 3.62C120.417 3.62 120.843 3.74667 121.123 4C121.403 4.24 121.543 4.60667 121.543 5.1C121.543 5.58 121.403 5.94667 121.123 6.2C120.843 6.44 120.417 6.56 119.843 6.56ZM121.203 8V18H118.463V8H121.203Z" fill="#25313E"/>
<defs>
<linearGradient id="paint0_linear_549_347" x1="2" y1="6.59091" x2="20" y2="17.1364" gradientUnits="userSpaceOnUse">
<stop stop-color="#450DBD"/>
<stop offset="0.85383" stop-color="#DA12AE"/>
</linearGradient>
</defs>
</svg>
