<svg width="330" height="286" viewBox="0 0 330 286" fill="none" xmlns="http://www.w3.org/2000/svg">
<rect width="330" height="286" rx="50" fill="#F5F6FB"/>
<path d="M136 100.812C133.028 100.812 130.562 98.5175 130.562 95.75V75.5C130.562 72.7325 133.028 70.4375 136 70.4375C138.972 70.4375 141.438 72.7325 141.438 75.5V95.75C141.438 98.5175 138.972 100.812 136 100.812Z" fill="#8F94A8"/>
<path d="M194 100.812C191.028 100.812 188.562 98.5175 188.562 95.75V75.5C188.562 72.7325 191.028 70.4375 194 70.4375C196.972 70.4375 199.438 72.7325 199.438 75.5V95.75C199.438 98.5175 196.972 100.812 194 100.812Z" fill="#8F94A8"/>
<path d="M184.43 215.562H136C109.537 215.562 94.3125 201.388 94.3125 176.75V119.375C94.3125 94.7375 109.537 80.5625 136 80.5625H194C220.463 80.5625 235.688 94.7375 235.688 119.375V154.003C235.688 155.96 234.455 157.715 232.642 158.592C230.757 159.402 228.51 159.2 226.915 157.985C215.46 149.48 197.843 149.48 186.388 158.188C178.558 163.925 174.135 172.498 174.135 181.88C174.135 187.415 175.73 192.815 178.848 197.473C181.24 201.118 184.213 204.155 187.693 206.45C189.578 207.733 190.448 210.027 189.723 212.12C188.853 214.145 186.822 215.562 184.43 215.562ZM136 90.6875C115.265 90.6875 105.188 100.07 105.188 119.375V176.75C105.188 196.055 115.265 205.438 136 205.438H171.453C170.728 204.56 170.075 203.615 169.495 202.67C165.362 196.46 163.188 189.238 163.188 181.812C163.188 169.325 169.133 157.85 179.573 150.223C191.97 140.84 210.312 138.815 224.812 145.025V119.375C224.812 100.07 214.735 90.6875 194 90.6875H136V90.6875Z" fill="#8F94A8"/>
<path d="M172.25 141.312H128.75C125.778 141.312 123.312 139.017 123.312 136.25C123.312 133.483 125.778 131.188 128.75 131.188H172.25C175.222 131.188 177.688 133.483 177.688 136.25C177.688 139.017 175.222 141.312 172.25 141.312Z" fill="#8F94A8"/>
<path d="M147.745 175.062H128.75C125.778 175.062 123.312 172.767 123.312 170C123.312 167.233 125.778 164.938 128.75 164.938H147.745C150.717 164.938 153.182 167.233 153.182 170C153.182 172.767 150.79 175.062 147.745 175.062Z" fill="#8F94A8"/>
<path d="M206.688 222.314C197.408 222.314 188.635 219.614 181.24 214.619C176.6 211.514 172.612 207.464 169.495 202.671C165.362 196.461 163.188 189.239 163.188 181.814C163.188 169.326 169.133 157.851 179.573 150.224C194.653 138.816 218.433 138.749 233.658 150.021C244.17 157.716 250.188 169.326 250.188 181.814C250.188 189.239 248.013 196.461 243.88 202.671C241.56 206.384 238.587 209.624 235.18 212.256C227.422 218.736 217.273 222.314 206.688 222.314ZM206.688 151.439C199.293 151.439 192.043 153.801 186.315 158.121C178.485 163.859 174.062 172.431 174.062 181.814C174.062 187.349 175.657 192.749 178.775 197.406C181.167 201.051 184.14 204.089 187.62 206.384C193.202 210.164 199.8 212.189 206.688 212.189C214.735 212.189 222.13 209.556 228.075 204.629C230.685 202.604 232.787 200.241 234.527 197.474C237.645 192.749 239.312 187.349 239.312 181.814C239.312 172.431 234.818 163.791 226.915 157.986C221.115 153.666 214.155 151.439 206.688 151.439Z" fill="#8F94A8"/>
<path d="M206.688 203.75C203.715 203.75 201.25 201.455 201.25 198.688C201.25 192.208 195.522 186.875 188.562 186.875C185.59 186.875 183.125 184.58 183.125 181.812C183.125 179.045 185.59 176.75 188.562 176.75C195.522 176.75 201.25 171.417 201.25 164.938C201.25 162.17 203.715 159.875 206.688 159.875C209.66 159.875 212.125 162.17 212.125 164.938C212.125 171.417 217.853 176.75 224.812 176.75C227.785 176.75 230.25 179.045 230.25 181.812C230.25 184.58 227.785 186.875 224.812 186.875C217.853 186.875 212.125 192.208 212.125 198.688C212.125 201.455 209.66 203.75 206.688 203.75ZM203.57 181.812C204.658 182.69 205.745 183.635 206.688 184.715C207.63 183.702 208.645 182.69 209.805 181.812C208.717 180.935 207.63 179.99 206.688 178.91C205.745 179.99 204.73 180.935 203.57 181.812Z" fill="#8F94A8"/>
</svg>
