<svg width="17" height="16" viewBox="0 0 17 16" fill="none" xmlns="http://www.w3.org/2000/svg">
<path d="M5.74602 14.187C5.21935 14.187 4.71935 14.0603 4.27935 13.807C3.23935 13.207 2.66602 11.987 2.66602 10.3803V5.62698C2.66602 4.01365 3.23935 2.80032 4.27935 2.20032C5.31935 1.60032 6.65935 1.71365 8.05935 2.52032L12.1727 4.89365C13.566 5.70032 14.3393 6.80699 14.3393 8.00699C14.3393 9.20699 13.5727 10.3137 12.1727 11.1203L8.05935 13.4937C7.25268 13.9537 6.46602 14.187 5.74602 14.187ZM5.74602 2.81365C5.38602 2.81365 5.06602 2.89365 4.77935 3.06032C4.05935 3.47365 3.66602 4.38698 3.66602 5.62698V10.3737C3.66602 11.6137 4.05935 12.5203 4.77935 12.9403C5.49935 13.3603 6.48602 13.2403 7.55935 12.6203L11.6727 10.247C12.746 9.62699 13.3393 8.83365 13.3393 8.00032C13.3393 7.16699 12.746 6.37365 11.6727 5.75365L7.55935 3.38032C6.90602 3.00699 6.29268 2.81365 5.74602 2.81365Z" fill="#450DBD"/>
</svg>
