<svg width="54" height="43" viewBox="0 0 54 43" fill="none" xmlns="http://www.w3.org/2000/svg">
<path d="M11.9469 43C9.50442 43 7.38053 42.3534 5.57522 41.0602C3.76991 39.6591 2.38938 37.7732 1.43363 35.4023C0.477876 33.0313 0 30.3371 0 27.3195C0 23.6554 0.584071 20.1529 1.75221 16.812C3.02655 13.3634 4.93805 10.1842 7.48672 7.27444C10.0354 4.36466 13.3274 1.93985 17.3628 0L24.0531 6.30452C21.1858 7.27444 18.6372 8.62156 16.4071 10.3459C14.2832 12.0702 12.531 14.01 11.1504 16.1654C9.87611 18.3208 8.97345 20.5301 8.44248 22.7932L9.07965 23.1165C9.50442 22.7932 10.0354 22.5238 10.6726 22.3083C11.3097 22.0927 12.2655 21.985 13.5398 21.985C14.8142 21.985 16.1416 22.3622 17.5221 23.1165C18.9027 23.8709 20.0177 25.0025 20.8673 26.5113C21.823 27.9123 22.3009 29.7982 22.3009 32.1692C22.3009 34.109 21.823 35.8872 20.8673 37.5038C20.0177 39.1203 18.7965 40.4674 17.2035 41.5451C15.6106 42.515 13.8584 43 11.9469 43ZM41.8938 43C39.4513 43 37.3274 42.3534 35.5221 41.0602C33.7168 39.6591 32.3363 37.7732 31.3805 35.4023C30.4248 33.0313 29.9469 30.3371 29.9469 27.3195C29.9469 23.6554 30.531 20.1529 31.6991 16.812C32.9734 13.3634 34.885 10.1842 37.4336 7.27444C39.9823 4.36466 43.2743 1.93985 47.3097 0L54 6.30452C51.1327 7.27444 48.5841 8.62156 46.354 10.3459C44.2301 12.0702 42.4779 14.01 41.0973 16.1654C39.823 18.3208 38.9204 20.5301 38.3894 22.7932L39.0265 23.1165C39.4513 22.7932 39.9823 22.5238 40.6195 22.3083C41.2566 22.0927 42.2124 21.985 43.4867 21.985C44.7611 21.985 46.0885 22.3622 47.469 23.1165C48.8496 23.8709 49.9646 25.0025 50.8142 26.5113C51.7699 27.9123 52.2478 29.7982 52.2478 32.1692C52.2478 34.109 51.7699 35.8872 50.8142 37.5038C49.9646 39.1203 48.7434 40.4674 47.1504 41.5451C45.5575 42.515 43.8053 43 41.8938 43Z" fill="#14AC6C"/>
</svg>
