<svg width="48" height="45" viewBox="0 0 48 45" fill="none" xmlns="http://www.w3.org/2000/svg">
<path d="M23.263 40.7773C12.0807 40.7773 2.97656 32.1523 2.97656 21.5586C2.97656 10.9648 12.0807 2.33984 23.263 2.33984C34.4453 2.33984 43.5495 10.9648 43.5495 21.5586C43.5495 32.1523 34.4453 40.7773 23.263 40.7773ZM23.263 5.15234C13.7036 5.15234 5.94531 12.5211 5.94531 21.5586C5.94531 30.5961 13.7036 37.9648 23.263 37.9648C32.8224 37.9648 40.5807 30.5961 40.5807 21.5586C40.5807 12.5211 32.8224 5.15234 23.263 5.15234Z" fill="#435060"/>
<path d="M44.0452 42.6594C43.6691 42.6594 43.2931 42.5281 42.9962 42.2469L39.0379 38.4969C38.4639 37.9531 38.4639 37.0531 39.0379 36.5094C39.6118 35.9656 40.5619 35.9656 41.1358 36.5094L45.0941 40.2594C45.6681 40.8031 45.6681 41.7031 45.0941 42.2469C44.7973 42.5281 44.4212 42.6594 44.0452 42.6594Z" fill="#435060"/>
</svg>
