<svg width="80" height="80" viewBox="0 0 80 80" fill="none" xmlns="http://www.w3.org/2000/svg">
<path d="M58.166 75.8346C54.3994 75.8346 50.4327 74.9346 46.3327 73.2013C42.3327 71.5013 38.2994 69.168 34.366 66.3346C30.4327 63.468 26.666 60.2346 23.1327 56.7346C19.5994 53.168 16.3994 49.4013 13.566 45.5346C10.6993 41.5346 8.39935 37.568 6.76602 33.668C5.03268 29.568 4.16602 25.568 4.16602 21.8013C4.16602 19.2013 4.63268 16.7346 5.53268 14.4346C6.49935 12.0346 7.96602 9.86797 9.99935 7.96797C12.566 5.46797 15.4994 4.16797 18.6327 4.16797C19.9327 4.16797 21.266 4.46797 22.3993 5.0013C23.6993 5.6013 24.7993 6.5013 25.5993 7.7013L33.3327 18.6013C34.0327 19.568 34.566 20.5013 34.9327 21.4346C35.366 22.4346 35.5994 23.4346 35.5994 24.4013C35.5994 25.668 35.2327 26.9013 34.5327 28.068C34.0327 28.968 33.266 29.9346 32.2993 30.9013L30.0327 33.268C30.066 33.368 30.0994 33.4346 30.1327 33.5013C30.5327 34.2013 31.3327 35.4013 32.866 37.2013C34.466 39.068 36.0327 40.7346 37.566 42.3346C39.566 44.3013 41.166 45.8013 42.6994 47.068C44.5994 48.668 45.8327 49.468 46.566 49.8346L46.4994 50.0013L48.9327 47.6013C49.966 46.568 50.966 45.8013 51.9327 45.3013C53.766 44.168 56.0994 43.968 58.4327 44.9346C59.2994 45.3013 60.2327 45.8013 61.2327 46.5013L72.2994 54.368C73.4994 55.2013 74.4327 56.268 74.966 57.5346C75.466 58.8013 75.6993 59.968 75.6993 61.1346C75.6993 62.7346 75.3327 64.3346 74.6327 65.8346C73.9327 67.3346 73.066 68.6346 71.966 69.8346C70.066 71.9346 67.9994 73.4346 65.5994 74.4013C63.2994 75.3346 60.7994 75.8346 58.166 75.8346ZM18.6327 9.16797C16.7994 9.16797 15.0993 9.96797 13.466 11.568C11.966 13.0013 10.866 14.568 10.1993 16.268C9.49935 18.0013 9.16602 19.8346 9.16602 21.8013C9.16602 24.9013 9.89935 28.268 11.366 31.7346C12.866 35.268 14.966 38.9346 17.6327 42.6013C20.2993 46.268 23.3327 49.8346 26.666 53.2013C29.9994 56.5013 33.5993 59.568 37.2993 62.268C40.8993 64.9013 44.5993 67.0346 48.266 68.568C53.966 71.0013 59.2994 71.568 63.6994 69.7346C65.3994 69.0346 66.8994 67.968 68.266 66.4346C69.0327 65.6013 69.6327 64.7013 70.1327 63.6346C70.5327 62.8013 70.7327 61.9346 70.7327 61.068C70.7327 60.5346 70.6327 60.0013 70.366 59.4013C70.2994 59.2346 70.066 58.8346 69.4327 58.4013L58.366 50.5346C57.6994 50.068 57.0993 49.7346 56.5327 49.5013C55.666 49.168 55.0993 49.1346 54.366 49.6013C53.6993 49.9346 53.0993 50.4346 52.4327 51.1013L49.8994 53.6013C48.5994 54.868 46.5994 55.168 45.066 54.6013L44.166 54.2013C42.7994 53.468 41.1994 52.3346 39.4327 50.8346C37.7994 49.468 36.1327 47.9013 33.9993 45.8013C32.3327 44.1013 30.7327 42.3346 29.0327 40.4013C27.466 38.568 26.3327 37.0013 25.6327 35.7013L25.1993 34.7013C24.9993 33.968 24.9327 33.5346 24.9327 33.068C24.9327 31.868 25.366 30.8013 26.1994 29.968L28.6993 27.368C29.366 26.7013 29.866 26.068 30.1994 25.5013C30.466 25.068 30.566 24.7013 30.566 24.368C30.566 24.1013 30.466 23.7013 30.2994 23.3013C30.0994 22.7346 29.7327 22.168 29.266 21.5013L21.5327 10.568C21.1993 10.1013 20.7994 9.76797 20.2994 9.53463C19.766 9.3013 19.1994 9.16797 18.6327 9.16797ZM46.4994 50.0346L45.966 52.3013L46.866 49.968C46.7327 49.9346 46.5994 49.968 46.4994 50.0346Z" fill="#EF2940"/>
<path d="M54.0991 28.401C53.4658 28.401 52.8324 28.1677 52.3324 27.6677C51.3658 26.701 51.3658 25.101 52.3324 24.1344L64.1324 12.3344C65.0991 11.3677 66.6991 11.3677 67.6658 12.3344C68.6324 13.301 68.6324 14.901 67.6658 15.8677L55.8658 27.6677C55.3991 28.1344 54.7324 28.401 54.0991 28.401Z" fill="#EF2940"/>
<path d="M65.8991 28.401C65.2658 28.401 64.6324 28.1677 64.1324 27.6677L52.3324 15.8677C51.3658 14.901 51.3658 13.301 52.3324 12.3344C53.2991 11.3677 54.8991 11.3677 55.8658 12.3344L67.6658 24.1344C68.6324 25.101 68.6324 26.701 67.6658 27.6677C67.1658 28.1344 66.5324 28.401 65.8991 28.401Z" fill="#EF2940"/>
</svg>
