<svg width="80" height="80" viewBox="0 0 80 80" fill="none" xmlns="http://www.w3.org/2000/svg">
<path d="M58.1664 75.833C54.3997 75.833 50.4331 74.933 46.3331 73.1997C42.3331 71.4997 38.2997 69.1663 34.3664 66.333L32.8997 65.233C31.7997 64.3997 31.5997 62.833 32.4331 61.733C33.2664 60.633 34.8331 60.433 35.9331 61.2663L37.3331 62.2997C40.9331 64.933 44.6331 67.0663 48.2997 68.5997C53.9997 71.033 59.3331 71.5997 63.7331 69.7663C65.4331 69.0663 66.9331 67.9997 68.2997 66.4663C69.0664 65.633 69.6664 64.733 70.1664 63.6663C70.5664 62.833 70.7664 61.9663 70.7664 61.0997C70.7664 60.5663 70.6664 60.033 70.3997 59.433C70.3331 59.2663 70.0997 58.8664 69.4664 58.433L58.3997 50.5663C57.7331 50.0997 57.1331 49.7663 56.5664 49.533C55.6997 49.1997 55.1331 49.1663 54.3997 49.633C53.7331 49.9663 53.1331 50.4663 52.4664 51.133L49.9331 53.633C48.6331 54.8997 46.6331 55.1997 45.0997 54.633C45.0331 54.5997 44.6997 54.4663 44.6331 54.433C44.5997 54.3997 44.2331 54.2663 44.1997 54.233C43.4664 53.8663 42.6664 53.333 41.7331 52.6663C40.6331 51.8663 40.3664 50.2997 41.1664 49.1663C41.9664 48.033 43.5331 47.7997 44.6664 48.5997C45.3664 49.0997 45.9997 49.4997 46.5331 49.7997L46.4997 49.9997L48.9331 47.5663C49.9664 46.533 50.9664 45.7663 51.9331 45.2663C53.7664 44.133 56.0997 43.933 58.4331 44.8997C59.2997 45.2663 60.2331 45.7663 61.2331 46.4663L72.2997 54.333C73.4997 55.1663 74.4331 56.233 74.9664 57.4997C75.4664 58.7663 75.6997 59.933 75.6997 61.0997C75.6997 62.6997 75.3331 64.2997 74.6331 65.7997C73.9331 67.2997 73.0664 68.5997 71.9664 69.7997C70.0664 71.8997 67.9997 73.3997 65.5997 74.3663C63.2997 75.333 60.7997 75.833 58.1664 75.833ZM46.4997 50.033L45.9664 52.2997L46.8664 49.9663C46.7331 49.933 46.5664 49.9663 46.4997 50.033Z" fill="#292D32"/>
<path d="M24.8993 57.468C24.266 57.468 23.5993 57.2346 23.1327 56.7346C19.6327 53.2013 16.3993 49.4346 13.5993 45.5346C10.7327 41.5346 8.43268 37.568 6.79935 33.668C5.03268 29.568 4.16602 25.568 4.16602 21.8013C4.16602 19.2013 4.63268 16.7346 5.53268 14.4346C6.49935 12.0346 7.96602 9.86797 9.99935 7.96797C12.566 5.46797 15.4993 4.16797 18.6327 4.16797C19.9327 4.16797 21.266 4.46797 22.3993 5.0013C23.6993 5.6013 24.7993 6.5013 25.5993 7.7013L33.3327 18.6013C34.0327 19.568 34.566 20.5013 34.9327 21.4346C35.366 22.4346 35.5993 23.4346 35.5993 24.4013C35.5993 25.668 35.2327 26.9013 34.5327 28.068C34.0327 28.968 33.266 29.9346 32.2993 30.9013L30.0327 33.268C30.066 33.368 30.0993 33.4346 30.1327 33.5013C30.5327 34.2013 31.3327 35.4013 32.866 37.2013C34.466 39.068 36.0327 40.7346 37.566 42.3346C38.5327 43.3346 38.5327 44.9013 37.5327 45.868C36.5327 46.8346 34.966 46.8346 33.9993 45.8346C32.366 44.168 30.766 42.4013 29.066 40.4346C27.4993 38.6013 26.366 37.0346 25.666 35.7346C25.5993 35.6013 25.5327 35.468 25.4993 35.3346L25.266 34.768C25.066 34.0346 24.9993 33.6013 24.9993 33.1346C24.9993 31.9346 25.4327 30.868 26.266 30.0346L28.766 27.4346C29.4327 26.768 29.9327 26.1346 30.266 25.568C30.5327 25.1346 30.6327 24.768 30.6327 24.4346C30.6327 24.168 30.5327 23.768 30.366 23.368C30.0993 22.7346 29.7327 22.168 29.266 21.5013L21.5327 10.568C21.1993 10.1013 20.7993 9.76797 20.2993 9.53463C19.7993 9.3013 19.2327 9.16797 18.6327 9.16797C16.7993 9.16797 15.0993 9.96797 13.466 11.568C11.966 13.0013 10.866 14.568 10.1993 16.268C9.49935 18.0013 9.16602 19.8346 9.16602 21.8013C9.16602 24.9013 9.89935 28.268 11.366 31.7346C12.866 35.268 14.966 38.9346 17.6327 42.6013C20.2993 46.268 23.3327 49.8346 26.666 53.2013C27.6327 54.168 27.6327 55.768 26.666 56.7346C26.166 57.2346 25.5327 57.468 24.8993 57.468Z" fill="#292D32"/>
<path d="M6.66745 75.8341C6.03411 75.8341 5.40078 75.6008 4.90078 75.1008C3.93411 74.1341 3.93411 72.5341 4.90078 71.5674L71.5674 4.90078C72.5341 3.93411 74.1341 3.93411 75.1008 4.90078C76.0674 5.86745 76.0674 7.46745 75.1008 8.43411L8.43411 75.1008C7.93411 75.6008 7.30078 75.8341 6.66745 75.8341Z" fill="#292D32"/>
</svg>
