<svg width="24" height="25" viewBox="0 0 24 25" fill="none" xmlns="http://www.w3.org/2000/svg">
<path d="M21.947 9.67706C21.8842 9.49193 21.7685 9.32925 21.6142 9.20912C21.46 9.08899 21.2739 9.01666 21.079 9.00106L15.378 8.54806L12.911 3.08706C12.8325 2.91117 12.7047 2.76178 12.5431 2.65692C12.3815 2.55205 12.193 2.4962 12.0004 2.49609C11.8077 2.49599 11.6192 2.55164 11.4575 2.65632C11.2957 2.76101 11.1678 2.91026 11.089 3.08606L8.62203 8.54806L2.92103 9.00106C2.72948 9.01624 2.54636 9.08627 2.39358 9.20279C2.2408 9.31931 2.12482 9.47738 2.05952 9.65809C1.99422 9.8388 1.98236 10.0345 2.02537 10.2218C2.06838 10.409 2.16443 10.5799 2.30203 10.7141L6.51503 14.8211L5.02503 21.2731C4.97978 21.4684 4.99428 21.6727 5.06665 21.8597C5.13901 22.0467 5.26589 22.2076 5.43083 22.3215C5.59577 22.4354 5.79115 22.4972 5.99161 22.4987C6.19208 22.5002 6.38837 22.4415 6.55503 22.3301L12 18.7001L17.445 22.3301C17.6154 22.4432 17.8162 22.5014 18.0207 22.4969C18.2251 22.4924 18.4232 22.4254 18.5884 22.305C18.7536 22.1845 18.878 22.0164 18.9448 21.8231C19.0116 21.6299 19.0176 21.4208 18.962 21.2241L17.133 14.8241L21.669 10.7421C21.966 10.4741 22.075 10.0561 21.947 9.67706Z" fill="#FFA826"/>
</svg>
