<svg width="60" height="53" viewBox="0 0 60 53" fill="none" xmlns="http://www.w3.org/2000/svg">
<path d="M37.6862 50.237H22.8112C9.34932 50.237 3.59766 45.1136 3.59766 33.1224V19.8724C3.59766 7.88115 9.34932 2.75781 22.8112 2.75781H37.6862C51.1481 2.75781 56.8997 7.88115 56.8997 19.8724V33.1224C56.8997 45.1136 51.1481 50.237 37.6862 50.237ZM22.8112 6.07031C11.3822 6.07031 7.31641 9.69198 7.31641 19.8724V33.1224C7.31641 43.3028 11.3822 46.9245 22.8112 46.9245H37.6862C49.1152 46.9245 53.181 43.3028 53.181 33.1224V19.8724C53.181 9.69198 49.1152 6.07031 37.6862 6.07031H22.8112Z" fill="#D8D8E2"/>
<path d="M26.7286 34.4103C26.2328 34.4103 25.7617 34.2336 25.4146 33.9244L18.3986 27.6748C17.6796 27.0344 17.6796 25.9744 18.3986 25.334C19.1176 24.6936 20.3076 24.6936 21.0265 25.334L26.7286 30.4132L39.4715 19.0623C40.1905 18.4219 41.3805 18.4219 42.0994 19.0623C42.8184 19.7028 42.8184 20.7628 42.0994 21.4032L28.0426 33.9244C27.6955 34.2336 27.2244 34.4103 26.7286 34.4103Z" fill="#D8D8E2"/>
</svg>
